/* XPM */
static char *result[] = {
/* columns rows colors chars-per-pixel */
"64 64 211 2 ",
"   c #020101",
".  c #0B0303",
"X  c #0B0807",
"o  c #05090A",
"O  c #0B0B0B",
"+  c #070708",
"@  c #100505",
"#  c #110E0E",
"$  c #14110E",
"%  c #090F10",
"&  c #061213",
"*  c #0D1313",
"=  c #0C1B1C",
"-  c #0D1718",
";  c #131313",
":  c #191414",
">  c #151A1B",
",  c #1A1A1A",
"<  c #1B1A16",
"1  c #221714",
"2  c #25201B",
"3  c #2B251E",
"4  c #2C291C",
"5  c #282316",
"6  c #332E1D",
"7  c #33261A",
"8  c #3B311B",
"9  c #101F20",
"0  c #0F2325",
"q  c #0F2829",
"w  c #152324",
"e  c #1A2424",
"r  c #162728",
"t  c #17292A",
"y  c #1C2B2C",
"u  c #1C2F31",
"i  c #1A3536",
"p  c #1C302F",
"a  c #252424",
"s  c #2A2826",
"d  c #362E27",
"f  c #21312F",
"g  c #3B3423",
"h  c #3C332B",
"j  c #373124",
"k  c #213535",
"l  c #223D3E",
"z  c #2D3D3A",
"x  c #2C3936",
"c  c #343737",
"v  c #433A26",
"b  c #463A2C",
"n  c #493E2A",
"m  c #42372B",
"M  c #453A31",
"N  c #473D35",
"B  c #503A2D",
"V  c #623338",
"C  c #31403D",
"Z  c #4E432C",
"A  c #51442F",
"S  c #59402E",
"D  c #4D443B",
"F  c #554633",
"G  c #594534",
"H  c #5A4934",
"J  c #594438",
"K  c #554A3B",
"L  c #5F4B3B",
"P  c #534737",
"I  c #634C3B",
"U  c #654C3B",
"Y  c #6B513E",
"T  c #60533C",
"R  c #1B3E40",
"E  c #663B43",
"W  c #1A4346",
"Q  c #244344",
"!  c #224B4D",
"~  c #2A4B4C",
"^  c #294647",
"/  c #334441",
"(  c #224D50",
")  c #2A4E50",
"_  c #2C5355",
"`  c #2F5759",
"'  c #2D5A5B",
"]  c #245456",
"[  c #315B5D",
"{  c #2E5F60",
"}  c #2C6265",
"|  c #316265",
" . c #346669",
".. c #356A6D",
"X. c #3B6A6D",
"o. c #346D70",
"O. c #3C6E71",
"+. c #397679",
"@. c #4A4847",
"#. c #594D43",
"$. c #585856",
"%. c #654945",
"&. c #6D5240",
"*. c #6A5E49",
"=. c #755644",
"-. c #775846",
";. c #785947",
":. c #7B5B48",
">. c #665454",
",. c #736453",
"<. c #6D614D",
"1. c #587D7F",
"2. c #636262",
"3. c #6C6C77",
"4. c #815D4A",
"5. c #8E795E",
"6. c #8D7860",
"7. c #927D63",
"8. c None",
"9. c #9D8871",
"0. c #9B846C",
"q. c #A48D72",
"w. c #AC9276",
"e. c #B59D7E",
"r. c #3B7D82",
"t. c #6A7681",
"y. c #3D8284",
"u. c #3F8688",
"i. c #3F8F90",
"p. c #49969B",
"a. c #4B9A9E",
"s. c #449699",
"d. c #438A8D",
"f. c #4D9DA1",
"g. c #4BA2A6",
"h. c #4DAAAC",
"j. c #45A3A8",
"k. c #52A5AB",
"l. c #52ACAE",
"z. c #52A3A6",
"x. c #53AEB2",
"c. c #4EB1B2",
"v. c #54B1B2",
"b. c #58B9BE",
"n. c #57B5BA",
"m. c #4EAFB5",
"M. c #72818B",
"N. c #59BCC2",
"B. c #57C1C2",
"V. c #63D4DB",
"C. c #67DCE2",
"Z. c #6AE4EB",
"A. c #6DE8EB",
"S. c #6DEBF3",
"D. c #64EBF3",
"F. c #70EEF5",
"G. c #75EDF6",
"H. c #6BF5FD",
"J. c #6DFCFE",
"K. c #72F3F6",
"L. c #73F4FC",
"P. c #76FFFF",
"I. c #7BFFFF",
"U. c #7DF3FB",
"Y. c #9F938A",
"T. c #A99E94",
"R. c #B9A386",
"E. c #ACA198",
"W. c #85BBBD",
"Q. c #C3AB8B",
"!. c #C4A789",
"~. c #CCB392",
"^. c #DEBC9D",
"/. c #D2B797",
"(. c #C8B08E",
"). c #E1BF9F",
"_. c #DDC39F",
"`. c #D8C5AE",
"'. c #E4C1A1",
"]. c #EAC8A6",
"[. c #F0CEAB",
"{. c #F9D4AE",
"}. c #F4D7B1",
"|. c #FCD5B2",
" X c #F6D8B3",
".X c #FEDBB6",
"XX c #FEDDB9",
"oX c #E9D4BE",
"OX c #FFE2BC",
"+X c #BDC0C3",
"@X c #81FFFF",
"#X c #9CF1F7",
"$X c #98F1F8",
"%X c #86EDF4",
"&X c #B3F0F5",
"*X c #C3C4C5",
"=X c #F7DAC0",
"-X c #FFECC3",
";X c #FCE4CE",
":X c #EAE1D8",
">X c #FCE6D2",
",X c #FAE9DA",
"<X c #D5EAED",
"1X c #EDEDEC",
"2X c #E9E8E7",
"3X c #FFEDEF",
"4X c #F6EDEF",
"5X c #ECEEF1",
"6X c #EDF0F3",
"7X c #F7F9FA",
"8X c None",
/* pixels */
"8.8.8.8.8.8.8.8.8.8.8.8.8.8.3.3.t.$.G J J J J J J J J J J J J J J J J J J J J J J J J J J G >.3.3.3.M.8.8.8.8.8.8.8.8.8.8.8.8.8.",
"8.8.8.8.8.8.8.8.8.8.8.8.8.8.y y r I 4.:.:.:.:.;.:.:.:.:.:.:.:.:.:.:.:.;.:.:.:.:.:.:.:.:.:.:.T y p > B.8.8.8.8.8.8.8.8.8.8.8.8.8.",
"8.8.8.8.8.8.8.8.8.8.8.8.8.8.1 1 5 U -.=.=.=.=.=.=.=.=.=.=.=.=.=.=.=.=.=.=.=.=.=.=.=.=.=.=.=.I 6 1 . h.8.8.8.8.8.8.8.8.8.8.8.8.8.",
"8.8.8.8.8.8.8.8.8.8.8.8.8.8.;.=.-.-.-.-.;.;.U U U U U =.=.;.=.;.;.=.;.;.&.I I U I H Z Z A A n g 4 . c.8.8.8.8.8.8.8.8.8.8.8.8.8.",
"8.8.8.8.8.8.8.8.8.8.8.8.8.8.:.;.;.-.-.-.-.-.U I I L I =.;.;.;.;.;.;.;.:.=.I U I U H Z Z Z A Z g 4 . v.8.8.8.8.8.8.8.8.8.8.8.8.8.",
"8.8.8.8.8.8.8.8.8.8.8.8.8.8.I I I &.-.-.-.-.&.Y Y Y &.Y Y &.&.U &.&.Y &.U F G F H Z v v v v g g 3 . h.8.8.8.8.8.8.8.8.8.8.8.8.8.",
"8.8.8.8.8.8.8.8.8.8.8.8.8.8.Z Z Z U ;.-.-.-.-.-.;.;.=.I I I I I I I U U H Z Z Z Z v j g g g j g 3 . h.8.8.8.8.8.8.8.8.8.8.8.8.8.",
"8.8.8.8.8.8.8.8.8.8.8.8.8.8.A Z A Y -.=.=.=.=.=.=.-.=.U L L H I G J H H A v v v Z g 6 6 8 g 8 g 4 . x.8.8.8.8.8.8.8.8.8.8.8.8.8.",
"8.8.8.8.8.8.8.8.8.8.8.8.8.8.=.=.=.U U I U &.Y Y I I I A v g g v e.~.(.~.Q.R.(.(.Q.!.!.!.T v Z Z d   h.8.8.8.8.8.8.8.8.8.8.8.8.8.",
"8.8.8.8.8.8.8.8.8.8.8.8.8.8.4.:.:.Y U U G B B F I Y Y H 6 4 4 4 _.OXOXOX-X-X-X-X.X{.|.{.*.Z Z A d . v.8.8.8.8.8.8.8.8.8.8.8.8.8.",
"8.8.8.8.8.8.8.8.8.8.8.8.8.8.m h G F n F Y.E.E.T.b 3 4 5 q.e.e.e.[. X}.}.,.K D K `.,X:X:X<.v A G j . h.8.8.8.8.8.8.8.8.8.8.8.8.8.",
"8.8.8.8.8.8.8.8.8.8.8.8.8.8.. O 5 4 5 d :X7X7X7Xa     + _.-XOXOX.X X X X4       +X7X6X4X*.8 v v 4 . v.8.8.8.8.8.8.8.8.8.8.8.8.8.",
"8.8.8.8.8.8.8.8.8.8.8.8.8.8.# , 0.w.q.w.:X5X1X2Xs   + O /.OX}.}. X X X Xh + . O *X7X1X1XR.w.w.e.<.  x.8.8.8.8.8.8.8.8.8.8.8.8.8.",
"8.8.8.8.8.8.8.8.8.8.8.8.8.8.# 1 ]..X|.|.1X6X5X1Xe       /..X}.}.}.}. X X3       +X7X6X6X=X|.|.OX9.  l.8.8.8.8.8.8.8.8.8.8.8.8.8.",
"8.8.8.8.8.8.8.8.8.8.8.8.8.8.O 2 ]..X|.|.>X>X>X>Xq.5.5.7.[.OX.XXXOX.XXX.Xq.5.5.7.=X,X>X>X.X|.{.OX9.  b.8.8.8.8.8.8.8.8.8.8.8.8.8.",
"8.8.8.8.8.8.8.8.8.8.8.8.8.8.. O h M M M b m b b F K K K N M M M b M M M K K K K c b b b M N M N 3   i 8.8.8.8.8.8.8.8.8.8.8.8.8.",
"8.8.8.8.8.8.8.8.8.8.8.8.8.8.                                                                          8.8.8.8.8.8.8.8.8.8.8.8.8.",
"8.8.8.8.8.8.8.8.8.8.8.8.8.8.                                                                          8.8.8.8.8.8.8.8.8.8.8.8.8.",
"        8X8X8X  f E V E a                                                                             a 8X8X>.^                 ",
"%       ' u.r.u.u O * * +                                                                               * * O } u.r.u.'   +     ",
"        +.z.f.z.^ : , , # O O O + + + + + + + O - - * w o.o.o.o.o...o.' * - - * + + O + + + + + + + O ; , , : O.z.a.z.p.        ",
"Q ! ! ] t . @ @ : , : , ; ; : > ; ; ; # ; ; ; : ; ; X ^ I.@XI.I.I.@X@XV.# ; ; ; ; ; ; : O ; ; ; : : ; : , , , # @ @ @  .] ! W Q ",
"W.g.k.l.^ : , , , , ; , > : ; ; ; $ O ; $ ; ; * ; ; # y p.a.a.a.a.p.f.+.O ; ; O ; # ; * O ; ; ; ; ; > > , : , , , 2 : X.l.z.g.W.",
"N   . . : a e 1 , , , > : ; ; , ; ; ; ; * ; ; ; ; # $ # . . . . . . . X ; ; ; ; ; ; ; ; ; ; ; # ; ; ; : , > : , a , , # @ @ . @.",
"        > , , , , , : , k ; , , : ; ; ; ; ; : ; ; ; ; ; ; ; ; ; ; : ; ; ; ; ; ; : ; ; > ; ; #         - , > < , > , , y         ",
"& o o & w : ; ; , ; : e +.: e u ; ; * ; X # O O $ ; $ ; ; ; ; ; ; ; ; ; ; ; ; O . . . . . .     & o o w : : ; ; : ; $ | - o o o ",
"1.}  .o.i $ ; > ; : ; , o.......> # ; ; W Q Q l ; $ ; ; ; ; ; ; ; ; ; ; > : ; y X...X. ...X. .} ..} } -       + ; > # [ o.} } t.",
"$.+ : * : , ; ; , > : > # # # # ; ; # > i.h.h.s.> # * ; # ; ; ; ; ; $ O . .   ` I.P.P.P.I.I.@XS.> O ;         + > : ; $ ; - o 2.",
"$.  ; ; > > > : O + + + O ; # ; ; ; # ; } .. .' > # ; ; * ; ; ; ; : # y ..X.[ p.K.F.K.V.f.z.x.d.> ; *         + > ; : ; + +   , ",
"$.+ : * : : : :           * # * ; ; ; ; . . . . * ; ; ; ; ; ; # . @   ^ P.P.P.P.I.P.I.z.  . . . ; # #         O , : , #         ",
"a o O O > > : > * + + + O * # ; * ; ; ; ) [ [ _ > ; : ; ; : ; e ' [ _ d.F.F.K.V.k.k.l.d.i Q l i ; # ; + o +   * > : : t         ",
"o     o w : ; > ; : ; : : ; ; # # ; # > Z.P.P.A.; . . . . X   l P.P.P.P.P.P.@Xa.  O . Q c.g.h.i.; * ; : : ; : : : > ; } o     o ",
"O       > : > : > 9 > w * ; ; ; ; ; ; > V.L.G.C.| ` [ [ ` [ ` r.K.F.K.Z.l.k.v.O.# > # k o.....' ; * ; ; w w w > : > : Q +     O ",
"> * ; ; O O . # & o o   X # * ; ; ; O > Z.P.P.P.P.P.P.P.P.P.P.L.L.L.P.N.. . X O ; # ; O # O # O ; ; ;           . O O O ; ; + 2.",
", ; : ; k _ Q ) 9       + ; ; : ; ; # : f.n.x.b.S.F.F.F.G.F.F.S.C.V.Z.h.; ; : ; ; ; ; ; ; ; ; ; ; ; ;         * ~ ~ ) e * : O @.",
"# . .   - 0 0 0 o         . . . # ; ; ; O @ . > F.P.P.P.P.P.P.S.h.h.c.y.* ; ; ; # * ; ; ; $ ; O X . .         o 0 0 0 o . . . , ",
"~ [ [ ~                 r ' ' ` > ; ; ; ; ; * w x.N.N.N.b.b.N.x.y.+.y.| # ; ; ; ; ; ; # ; ; * > [ [ [ O                 ~ [ ' [ ",
"R ! ! W         O * O O i ( ( ] O O ; * ; # ; ; # . . # # X O # # # O # ; # ; ; ; ; ; ; # ; O O ( ( ( > ; ; ; * 0 q q 0 i ( ( R ",
"                ; , , , 9     o   O ; ; ; ; # ; * ; : ; ; ; ; ; ; ; ; * ; ; * ; ; # ; ; ; ; O         , a a a w W W W i         ",
"& +     O + + + O * # O =   o &   O ; # ; ; ; ; ; ; ; ; ; * ; ; ; ; ; ; # ; ; # ; # ; # * ; O + - % * ; : ; ; - = = = -       + ",
"        > , , : +       &     o   : $ * ; ; $ ; ; ; ; ; ; # ; ; ; $ * ; ; * ; ; ; ; ; ; ; ; O * > * *                           ",
"d h h d ; ; ; : X   +   s h m N O * ; * ; ; ; * ; ; ; ; ; ; ; ; ; ; ; ; : ; ; ; ; # # ; ; ; O < #.D D O       + + + + + d h h d ",
"8.8.8.8.8.8.8.8.8.8.8.8.8.8.8.8.s + ; # $ O O # * O # # O O # O # O O O O O # * * O O * * ;   2 8.8.8.8.8.8.8.8.8.8.8.8.8.8.8.8.",
"8.8.8.8.8.8.8.8.8.8.8.8.8.8.8.8.; . + + + + + + + + + +                         + + + . + +   . 8.8.8.8.8.8.8.8.8.8.8.8.8.8.8.8.",
"8.8.8.8.8.8.8.8.8.8.8.8.8.8.8.8.x   + + + + + +   .                             + + + + + O   8X8.8.8.8.8.8.8.8.8.8.8.8.8.8.8.8.",
"8.8.8.8.8.8.8.8.8.8.8.8.8.8.8.8.8X. O O O O O * r w e t = + O + + + + - t w r r ; O O O O O   8X8.8.8.8.8.8.8.8.8.8.8.8.8.8.8.8.",
"8.8.8.8.8.8.8.8.8.8.8.8.8.8.8.8.8X  O O O $ O > V.F.A.K.a.  o O O O   s.K.Z.S.C.w X $ O + O   8X8.8.8.8.8.8.8.8.8.8.8.8.8.8.8.8.",
"8.8.8.8.8.8.8.8.8.8.8.8.8.8.8.8.x + * O O O O w S.P.P.I.h.. * # # * . g.I.P.P.K.e + * O O #   z 8.8.8.8.8.8.8.8.8.8.8.8.8.8.8.8.",
"8.8.8.8.8.8.8.8.8.8.8.8.8.8.8.8.z . O O O * O ; ) ` ] ` i O # # # O + l ` ] ` _ - O O O O O   C 8.8.8.8.8.8.8.8.8.8.8.8.8.8.8.8.",
"8.8.8.8.8.8.8.8.8.8.8.8.8.8.8.8.z O ; ; ; # * ; . . . . . O O o o O O . . . . . ; ; ; ; ; ; . / 8.8.8.8.8.8.8.8.8.8.8.8.8.8.8.8.",
"8.8.8.8.8.8.8.8.8.8.8.8.8.8.8.8./ . : O X . + + O + O O + O O O O O + O O O + O + + + + O ; . C 8.8.8.8.8.8.8.8.8.8.8.8.8.8.8.8.",
"8.8.8.8.8.8.8.8.8.8.8.8.8.8.8.8.c + > +                   o + + + + +                   O : X / 8.8.8.8.8.8.8.8.8.8.8.8.8.8.8.8.",
"8.8.8.8.8.8.8.8.8.8.8.8.8.8.8.8., + O < m h h j d h h h : . +     o   3 h h h h d h h j $ O + w 8.8.8.8.8.8.8.8.8.8.8.8.8.8.8.8.",
"8.8.8.8.8.8.8.8.8.8.8.8.8.8.8.8.  .   K XX|..X|.|..X|.OX#.            0.OX|.|.|.|..X.X[.<       8.8.8.8.8.8.8.8.8.8.8.8.8.8.8.8.",
"8.8.8.8.8.8.8.8.8.8.8.8.8.8.8.8.      D ].^.^.).).^.^.'.K             6.].).).'.).).'./.1       8.8.8.8.8.8.8.8.8.8.8.8.8.8.8.8.",
"8.8.8.8.8.8.8.8.8.8.8.8.8.8.8.8.y     . ; # $ $ : $ $ $ + . +   +   + O $ $ # $ $ # # # + +   f 8.8.8.8.8.8.8.8.8.8.8.8.8.8.8.8.",
"8.8.8.8.8.8.8.8.8.8.8.8.8.8.8.8.k                         + + + + . +                     +   z 8.8.8.8.8.8.8.8.8.8.8.8.8.8.8.8.",
"8.8.8.8.8.8.8.8.8.8.8.8.8.8.8.8.x   O + .   .         . + + + + + o + +         .     . O O   x 8.8.8.8.8.8.8.8.8.8.8.8.8.8.8.8.",
"8.8.8.8.8.8.8.8.8.8.8.8.8.8.8.8.z   O X w r r w w e t w + + + + + + + O r w e e r t t - + O   x 8.8.8.8.8.8.8.8.8.8.8.8.8.8.8.8.",
"8.8.8.8.8.8.8.8.8.8.8.8.8.8.8.8.u     Q S.S.F.S.S.S.S.A.+.  .         +.K.S.F.S.S.F.S.C.Q     x 8.8.8.8.8.8.8.8.8.8.8.8.8.8.8.8.",
"8.8.8.8.8.8.8.8.8.8.8.8.8.8.8.8.W > = ..J.H.H.H.H.H.H.P.c.- w > = = - g.P.H.H.H.H.H.H.P.+.* = ~ 8.8.8.8.8.8.8.8.8.8.8.8.8.8.8.8.",
"8.8.8.8.8.8.8.8.8.8.8.8.8.8.8.8.D.S.D.G.#X#X$X#X#X#X#X#XU.S.D.S.S.S.D.%X#X#X#X#X#X#X#X$XS.S.S.D.8.8.8.8.8.8.8.8.8.8.8.8.8.8.8.8.",
"8.8.8.8.8.8.8.8.8.8.8.8.8.8.8.8.J.L.J.#X3X3X3X3X3X3X3X3X#XH.L.L.L.L.H.&X3X3X3X3X3X3X4X4XU.L.L.H.8.8.8.8.8.8.8.8.8.8.8.8.8.8.8.8.",
"8.8.8.8.8.8.8.8.8.8.8.8.8.8.8.8.J.F.H.$X1X6X5X5X5X5X5X5X$XH.L.L.L.L.H.&X5X5X5X6X5X5X5X5XU.H.L.H.8.8.8.8.8.8.8.8.8.8.8.8.8.8.8.8."
};
