/* XPM */
static char *result[] = {
/* columns rows colors chars-per-pixel */
"64 64 112 2 ",
"   c black",
".  c #030E00",
"X  c #130000",
"o  c #051200",
"O  c #0B1F04",
"+  c #390000",
"@  c #122D01",
"#  c #163401",
"$  c #1B3D01",
"%  c #1B3D1F",
"&  c #540000",
"*  c #5C0000",
"=  c #640000",
"-  c #6F002F",
";  c #1E4302",
":  c #204702",
">  c #224A02",
",  c #224A1D",
"<  c #265028",
"1  c #265032",
"2  c #2B5836",
"3  c #29553D",
"4  c #2B583C",
"5  c #254E47",
"6  c #2E5D46",
"7  c #2C5A4B",
"8  c #2F604A",
"9  c #31634E",
"0  c #336655",
"q  c #366B56",
"w  c #376D5A",
"e  c #386F5E",
"r  c #366C64",
"t  c #3A7363",
"y  c #3D7774",
"u  c #3E7A74",
"i  c #830000",
"p  c #8D0000",
"a  c #910000",
"s  c #9D0000",
"d  c #A20000",
"f  c #AA0000",
"g  c #B30000",
"h  c #9B003C",
"j  c #AA0039",
"k  c #C50000",
"l  c #CB0000",
"z  c #D10000",
"x  c #F50000",
"c  c None",
"v  c #ED0034",
"b  c #FF0034",
"n  c #9D0046",
"m  c #8A4F60",
"M  c #438474",
"N  c #488C7C",
"B  c #E57999",
"V  c #4A8F82",
"C  c #4A8D8C",
"Z  c #519B8D",
"A  c #4B9191",
"S  c #539F9A",
"D  c #54A19A",
"F  c #59A99E",
"G  c #5CAEA2",
"H  c #5DB1A3",
"J  c #60B6AB",
"K  c #62BAAC",
"L  c #65BFB1",
"P  c #66C0B3",
"I  c #68C4B6",
"U  c #69C5B9",
"Y  c #6AC9BB",
"T  c #6ECEC1",
"R  c #6FD1C4",
"E  c #70D3C5",
"W  c #73D7C9",
"Q  c #75DCCD",
"!  c #77DFD0",
"~  c #77E0D1",
"^  c #78E2D3",
"/  c #7CE7D8",
"(  c #7EEADD",
")  c #AA96A1",
"_  c #89A9AE",
"`  c #90ACAF",
"'  c #CDA9B9",
"]  c #BAC2CA",
"[  c #80EFE2",
"{  c #83F4E4",
"}  c #84F7E8",
"|  c #86FAEB",
" . c #88FDED",
".. c #8BFFF4",
"X. c #8EFFFB",
"o. c #94FFFE",
"O. c #9DFFFF",
"+. c #A5FFFF",
"@. c #ADFFFF",
"#. c #B1FFFF",
"$. c #CFC0CC",
"%. c #C9CAD4",
"&. c #D3D2DE",
"*. c #FFCBE0",
"=. c #CEFFFF",
"-. c #D4FFFF",
";. c #DDFFFF",
":. c #E3FFFF",
">. c #EDFFFF",
",. c #FFF0FF",
"<. c #F4FFFF",
"1. c #FFFFFF",
/* pixels */
"c c c c c c c c c c c c c c c c c c c c c c c c c c c c c c c c c c c c c c c c c c c c c c c c c c c c c c c c c c c c c c c c ",
"c c c c c c c c c c c c c c c c c c c c c c c c c c c c c c c c c c c c c c c c c c c c c c c c c c c c c c c c c c c c c c c c ",
"c c c c c c c c c c c c c c c c c c c c c c c c c c c c c c c c c c c c c c c c c c c c c c c c c c c c c c c c c c c c c c c c ",
"c c c c c c c c c c c c c c c c c c c c c c c c c c c c c c c c c c c c c c c c c c c c c c c c c c c c c c c c c c c c c c c c ",
"c c c c c c c c c c c c c c c c c c c c c c c c c c c c c c c c c c c c c c c c c c c c c c c c c c c c c c c c c c c c c c c c ",
"c c c c c c c c c c c c c c c c c c c c c c c c c c c c c c c c c c c c c c c c c c c c c c c c c c c c c c c c c c c c c c c c ",
"c c c c c c c c c c c c c c c c c c c c c c c c c k > ; > : : : : : : : : > X c c c c c c c c c c c c c c c c c c c c c c c c c ",
"c c c c c c c c c c c c c c c c c c c c c c c c c l ; > : : : : : : : : ; : + c c c c c c c c c c c c c c c c c c c c c c c c c ",
"c c c c c c c c c c c c c c c c c c c c c c c c c k $ # $ # # # # # # # # $   c c c c c c c c c c c c c c c c c c c c c c c c c ",
"c c c c c c c c c c c c c c c c c c c c c c c c c B ] ] ] ] ] ] ] ] ] ] ] ] ' c c c c c c c c c c c c c c c c c c c c c c c c c ",
"c c c c c c c c c c c c c c c c c c c c c c o : ; 1.1.1.1.1.1.1.1.1.1.1.1.1.1.r $ ; c c c c c c c c c c c c c c c c c c c c c c ",
"c c c c c c c c c c c c c c c c c c c c c c . : ; ,.1.1.1.1.1.1.1.1.1.1.1.1.1.r ; ; c c c c c c c c c c c c c c c c c c c c c c ",
"c c c c c c c c c c c c c c c c c c c c c c   $ # 1.1.1.1.1.1.1.1.1.1.1.1.1.1.r # $ c c c c c c c c c c c c c c c c c c c c c c ",
"c c c c c c c c c c c c c c c c c c c c c c ) _ _ 1.1.1.1.1.1.1.1.1.1.1.1.1.1.G Z Z v c c c c c c c c c c c c c c c c c c c c c ",
"c c c c c c c c c c c c c c c c c c c $ # y 1.1.1.1.1.1.1.1.1.1.1.1.1.1.1.1.1.+.+.+.F # ; g c c c c c c c c c c c c c c c c c c ",
"c c c c c c c c c c c c c c c c c c c ; ; u 1.1.1.1.1.1.1.1.1.1.1.1.1.1.1.1.1.+.+.+.G # ; c c c c c c c c c c c c c c c c c c c ",
"c c c c c c c c c c c c c c c c c c c $ # y 1.1.1.1.1.1.1.1.1.1.1.1.1.1.1.1.1.+.+.+.G $ : c c c c c c c c c c c c c c c c c c c ",
"c c c c c c c c c c c c c c c c c c b A C ` 1.1.1.1.1.1.1.1.1.1.1.1.1.1.1.1.1.+.+.+.H $ : c c c c c c c c c c c c c c c c c c c ",
"c c c c c c c c c c c c c c c f #   $.1.1.1.1.1.1.1.1.1.1.1.1.1.1.1.1.1.#.#.#.@.#.@.J # : c c c c c c c c c c c c c c c c c c c ",
"c c c c c c c c c c c c c c c p > # %.1.1.1.1.1.1.1.1.1.1.1.1.1.1.1.1.1.#.@.#.#.#.#.J # : c c c c c c c c c c c c c c c c c c c ",
"c c c c c c c c c c c c c c c p > # %.1.1.1.1.1.1.1.1.1.1.1.1.1.1.1.1.1.#.@.#.@.#.@.J @ : c c c c c c c c c c c c c c c c c c c ",
"c c c c c c c c c c c c c c c a : # %.1.1.1.1.1.1.1.1.1.1.1.1.1.1.1.1.1.#.#.#.#.#.@.Y q t n c c c c c c c c c c c c c c c c c c ",
"c c c c c c c c c c c c c c c a : # %.1.1.1.1.1.1.1.1.1.1.1.1.1.1.1.1.1.1.1.1.#.#.#.+.o.O.^ O . = c c c c c c c c c c c c c c c ",
"c c c c c c c c c c c c c c c a > # %.1.1.1.1.1.1.1.1.1.1.1.1.1.1.1.1.1.1.1.1.#.#.#.+.+.+.} , : # c c c c c c c c c c c c c c c ",
"c c c c c c c c c c c c c c c p : # %.1.1.1.1.1.1.1.1.1.1.1.1.1.1.1.1.1.1.1.1.#.#.@.+.+.+.{ , : # c c c c c c c c c c c c c c c ",
"c c c c c c c c c c c c c c c h 0 7 &.1.1.1.1.1.1.1.1.1.1.1.1.1.1.1.1.1.1.1.1.@.@.@.+.+.@.{ , : @ c c c c c c c c c c c c c c c ",
"c c c c c c c c c c c c i = - ,.1.1.1.1.1.1.1.1.1.1.1.1.1.1.1.1.1.1.1.1.1.1.>...} } +.@.#..., : @ c c c c c c c c c c c c c c c ",
"c c c c c c c c c c c c $ ; 3 1.1.1.1.1.1.1.1.1.1.1.>.>.<.>.<.<.<.<.<.>.<.<.-.( ! ! O.#.#..., : @ c c c c c c c c c c c c c c c ",
"c c c c c c c c c c c c $ ; 3 1.1.1.1.1.1.1.1.1.1.1.>.<.<.<.<.<.<.<.<.<.<.<.-.( ! ^ O.#.#..., : @ c c c c c c c c c c c c c c c ",
"c c c c c c c c c c c c # ; 3 1.1.1.1.1.1.1.1.1.1.1.<.<.<.<.<.<.<.<.<.<.<.<.-.( ! ^ O.#.#.X.1 < % c c c c c c c c c c c c c c c ",
"c c c c c c c c c c c c $ ; 3 1.1.1.1.1.1.1.1.1.1.1.<.<.<.<.<.<.<.<.<.<.<.<.-.( ! ^ +.#.#.+. . .[ m s a c c c c c c c c c c c c ",
"c c c c c c c c c c c c $ ; 3 1.1.1.1.1.1.1.1.1.1.1.>.<.<.<.<.<.<.<.<.<.<.<.-.( ! ! O.#.#.@.+.+.O.M ; > c c c c c c c c c c c c ",
"c c c c c c c c c c c c # ; 3 1.1.1.1.1.1.1.1.1.1.1.<.<.<.<.<.<.<.<.<.<.<.<.-.[ ~ ^ O.#.@.@.+.+.O.M $ > c c c c c c c c c c c c ",
"c c c c c c c c c c c c $ ; 3 1.1.1.1.1.1.1.1.1.1.1.<.<.<.<.<.<.<.<.<.<.<.<.-.[ ! ^ O.#.#.@.+.+.O.M $ : c c c c c c c c c c c c ",
"c c c c c c c c c c c c # ; 3 1.1.1.1.1.1.1.=.@.#.;.<.<.<.<.<.<.<.<.<.<.<.<.-.( ~ ^ ( | } { ( ( ^ t $ > c c c c c c c c c c c c ",
"c c c c c c c c c c c c $ ; 3 1.1.1.1.1.1.1.O.O.O.@.<.<.<.<.<.<.<.<.<.<.<.<.-.[ ~ ~ T K L L L L J 9 ; : c c c c c c c c c c c c ",
"c c c c c c c c c c c c $ ; 3 1.1.1.1.1.1.1.O.O.O.@.<.<.<.<.<.<.<.<.<.<.<.<.-.( ~ ~ Y P P K P P K 9 ; : c c c c c c c c c c c c ",
"c c c c c c c c c c c c $ ; 3 1.1.1.1.1.1.1.+.O.O.+.1.<.<.<.<.<.<.<.<.<.<.1.-.( ! ! Y L P P P P K 9 : : c c c c c c c c c c c c ",
"c c c c c c c c c c c c # ; 3 1.1.1.1.<.<.>.+.+.+.O.O.o.O.o.o.o.O.o.o.O.o.O.o... ...} { ( ( R R Y q ; : c c c c c c c c c c c c ",
"c c c c c c c c c c c c $ ; 3 1.1.1.1.#.#.#.#.#.#.X.Q ! ! ! ! ! ! ! ! ! ! Q / O.O.O.O.O.O.o.~ ^ W w $ : c c c c c c c c c c c c ",
"c c c c c c c c c c c c $ ; 3 1.1.1.1.@.#.@.#.#.#.o.! ^ ~ ^ ~ ^ ^ ^ ! ^ ^ ! ( O.O.O.O.O.O.o.~ ^ W w ; ; c c c c c c c c c c c c ",
"c c c c c c c c c c c c $ ; 4 1.1.1.1.@.#.#.#.#.#.X.Q ~ ~ ~ ~ ~ ! ! ^ ! ^ ! ( O.O.O.O.O.O.o.^ ^ W e ; > c c c c c c c c c c c c ",
"c c c c c c c c c c c c z k k *.1.1.:.#.#.@.O.o.o...| | | | | | | | | | | | | |  . .o.O.O. .H H F j k k c c c c c c c c c c c c ",
"c c c c c c c c c c c c c c c p : # U @.#.+.T L L  .O.O.O.O.O.O.O.O.O.O.O.O.o.Y L P ..O.O.( , ; @ c c c c c c c c c c c c c c c ",
"c c c c c c c c c c c c c c c c : # U #.@.+.E L P  .+.O.O.O.O.O.O.O.O.O.O.O.o.Y L P ..O.O./ , ; @ c c c c c c c c c c c c c c c ",
"c c c c c c c c c c c c c c c c : # U #.#.+.E L K  .O.O.O.O.O.O.O.O.O.O.O.O.o.Y L P ..O.+.( , > @ c c c c c c c c c c c c c c c ",
"c c c c c c c c c c c c c c c c : # L @.@.+.R L P  .O.O.O.O.O.O.O.O.O.O.O.O.o.Y P P } o.o.Q , ; @ c c c c c c c c c c c c c c c ",
"c c c c c c c c c c c c c c c c : $ K +.+.+.R L K  .O.O.O.O.O.O.O.O.O.O.O.O.o.Y K P W ^ ^ K ; > @ c c c c c c c c c c c c c c c ",
"c c c c c c c c c c c c c c c c : $ K +.+.+.T L P  .O.O.O.O.O.O.O.O.O.O.O.O.o.Y P P W ^ ^ K > ; @ c c c c c c c c c c c c c c c ",
"c c c c c c c c c c c c c c c p > $ K +.+.O.T L K  .O.O.O.O.O.O.O.O.O.O.O.O.o.Y P P W ^ ^ K > ; # c c c c c c c c c c c c c c c ",
"c c c c c c c c c c c c c c c z * = S o.o...R I Y  .O.O.O.O.O.O.O.O.O.O.O.O.o.R I I Y Y Y D = = p c c c c c c c c c c c c c c c ",
"c c c c c c c c c c c c c c c c c c c 8 6 t R ~ Q X.O.O.O.O.O.O.O.O.O.O.O.O.o.^ ! ! V 1 2 d c c c c c c c c c c c c c c c c c c ",
"c c c c c c c c c c c c c c c c c c c ; $ 9 E ^ ^ ..O.O.O.O.O.O.O.O.O.O.O.O.o./ ~ ~ N ; > f c c c c c c c c c c c c c c c c c c ",
"c c c c c c c c c c c c c c c c c c c : ; 9 E ^ ~ o.O.O.O.O.O.O.O.O.O.O.O.O.O.^ ~ ^ N $ > f c c c c c c c c c c c c c c c c c c ",
"c c c c c c c c c c c c c c c c c c c .   5 I E R } o.X.X.o.X.X.o.X.o.X.X.o...W R R u   o l c c c c c c c c c c c c c c c c c c ",
"c c c c c c c c c c c c c c c c c c c c c c 5 9 9 q e e e e e e e e e e e e e 9 9 8 c c c c c c c c c c c c c c c c c c c c c c ",
"c c c c c c c c c c c c c c c c c c c c c c   ; ; ; $ ; ; $ $ ; $ $ $ ; $ ; $ ; ; $ c c c c c c c c c c c c c c c c c c c c c c ",
"c c c c c c c c c c c c c c c c c c c c c c o : : : : ; ; : : ; ; > > ; ; > > ; : ; c c c c c c c c c c c c c c c c c c c c c c ",
"c c c c c c c c c c c c c c c c c c c c c c & # # # # # # # # # # # # # # # # # # @ c c c c c c c c c c c c c c c c c c c c c c ",
"c c c c c c c c c c c c c c c c c c c c c c c c c c c c c c c c c c c c c c c c c c c c c c c c c c c c c c c c c c c c c c c c ",
"c c c c c c c c c c c c c c c c c c c c c c c c c c c c c c c c c c c c c c c c c c c c c c c c c c c c c c c c c c c c c c c c ",
"c c c c c c c c c c c c c c c c c c c c c c c c c c c c c c c c c c c c c c c c c c c c c c c c c c c c c c c c c c c c c c c c ",
"c c c c c c c c c c c c c c c c c c c c c c c c c c c c c c c c c c c c c c c c c c c c c c c c c c c c c c c c c c c c c c c c ",
"c c c c c c c c c c c c c c c c c c c c c c c c c c c c c c c c c c c c c c c c c c c c c c c c c c c c c c c c c c c c c c c c "
};
