/* XPM */
static char *result[] = {
/* columns rows colors chars-per-pixel */
"64 64 174 2 ",
"   c #030606",
".  c #050907",
"X  c #080B07",
"o  c #060B09",
"O  c #0A0C0A",
"+  c #0A130C",
"@  c #0D1B0C",
"#  c #10160F",
"$  c #100F11",
"%  c #0F1E10",
"&  c #161516",
"*  c #121C12",
"=  c #171618",
"-  c #19171A",
";  c #171A18",
":  c #1C1C1D",
">  c #10200D",
",  c #152414",
"<  c #162C16",
"1  c #182E16",
"2  c #1B251A",
"3  c #162D18",
"4  c #1C291B",
"5  c #193617",
"6  c #1B3817",
"7  c #1C331B",
"8  c #1F3D1A",
"9  c #203E1C",
"0  c #211F21",
"q  c #1F2020",
"w  c #252525",
"e  c #282827",
"r  c #272728",
"t  c #282729",
"y  c #2C2C2C",
"u  c #263F22",
"i  c #283F23",
"p  c #2F2F31",
"a  c #302F30",
"s  c #333333",
"d  c #383836",
"f  c #373739",
"g  c #3B3B3C",
"h  c #24451E",
"j  c #254622",
"k  c #2A4425",
"l  c #264B21",
"z  c #2F4827",
"x  c #2F432B",
"c  c #284C28",
"v  c #33462E",
"b  c #314A2A",
"n  c #2C5224",
"m  c #2E5629",
"M  c #2C582D",
"N  c #305129",
"B  c #374834",
"V  c #3F403F",
"C  c #3E4E39",
"Z  c #395634",
"A  c #315E31",
"S  c #3F503A",
"D  c #31662D",
"F  c #356B2D",
"G  c #386F2F",
"H  c #346434",
"J  c #3A6631",
"K  c #336B30",
"L  c #357232",
"P  c #3B7731",
"I  c #3E7D33",
"U  c #3D7638",
"Y  c #40413F",
"T  c #407F33",
"R  c #407D3A",
"E  c #3E3E40",
"W  c #434344",
"Q  c #474748",
"!  c #4B4B4C",
"~  c #4E4E50",
"^  c #535353",
"/  c #565658",
"(  c #5B5B5B",
")  c #606060",
"_  c #3F873D",
"`  c #428336",
"'  c #458B37",
"]  c #43843C",
"[  c #448A3C",
"{  c #4D883E",
"}  c #4A923C",
"|  c #4C983E",
" . c #448E41",
".. c #488843",
"X. c #548546",
"o. c #528F45",
"O. c #58864A",
"+. c #459343",
"@. c #4A9544",
"#. c #4B9C44",
"$. c #539246",
"%. c #519D43",
"&. c #5B934C",
"*. c #5C8C52",
"=. c #628A57",
"-. c #638D59",
";. c #4EA146",
":. c #53A345",
">. c #54AA46",
",. c #59AE47",
"<. c #56A24E",
"1. c #5AA54A",
"2. c #56AD49",
"3. c #59AB4D",
"4. c #57B049",
"5. c #5AB44A",
"6. c #5FBC4C",
"7. c #5CA357",
"8. c #5DAA54",
"9. c #5EA359",
"0. c #5FB152",
"q. c #60B04E",
"w. c #60BE4D",
"e. c #69A157",
"r. c #64A55C",
"t. c #62AB59",
"y. c #6DAC5D",
"u. c #67B357",
"i. c #65BE52",
"p. c #69BF55",
"a. c #6FBE5E",
"s. c #74BE5E",
"d. c #729069",
"f. c #7C9773",
"g. c #7D9A73",
"h. c #67A961",
"j. c #72AF66",
"k. c #72AA69",
"l. c #77BF62",
"z. c #7ABF6D",
"x. c #7DA673",
"c. c #62C24E",
"v. c #6BC156",
"b. c #6DC15A",
"n. c #72C25D",
"m. c #75C361",
"M. c #7AC465",
"N. c #7DC56A",
"B. c #7EC96C",
"V. c #82C66B",
"C. c #84C96D",
"Z. c #83C472",
"A. c #85CA74",
"S. c #89CB75",
"D. c #87C07C",
"F. c #8BB182",
"G. c #8EB984",
"H. c #92BB87",
"J. c #8BC181",
"K. c #93CD83",
"L. c #96C68B",
"P. c #9ACD8B",
"I. c #92D181",
"U. c #9CD28C",
"Y. c #9FD390",
"T. c #A3D494",
"R. c #ABD59D",
"E. c #ADD89E",
"W. c #AFD6A1",
"Q. c #AFD8A0",
"!. c #B0D6A3",
"~. c #B3DAA5",
"^. c #B7DCA9",
"/. c #B9DEAB",
/* pixels */
"w W / ! ~ ! = , 9 6 8 7 B C S C C b z z z z h h h h h h h h h h Y Y Z Y Z h h h h j h h h h k z z z z h h h h h + g ( / ^ ~ Q a ",
"w g ^ ! Q V O D +. . .@.L.W.W.W.R.Z.V.M.N.l.5.6.6.5.5.w.5.5.5.a.E.E.E.E.S.w.6.6.5.6.6.5.5.6.s.N.V.V.N.w.6.5.5.>.> e Y Y Y g g y ",
"w f Q E V s X D @.+.+.@.L.~.~.~.Q.S.V.V.V.l.w.w.6.6.w.w.w.6.6.m.E.~.~.~.K.w.w.w.6.6.6.6.6.6.m.C.V.V.V.i.w.w.w.,.> y Q Y Q W d e ",
"p f f f s w   P 4.2.4.4.h.h.h.h.r.p.v.p.p.p.w.q.6.w.6.w.6.6.6.w.M.M.M.B.A.U.U.P.U.M.6.6.6.6.i.i.p.p.p.w.q.w.w.,.> y Y g g W s e ",
"! ! Q W g p . T w.6.6.6.#.+. . .+.6.6.6.6.6.w.c.w.w.w.w.5.w.w.w.6.6.6.6.V././././.S.w.w.w.w.6.6.q.w.w.w.5.w.w.,.@ a ! ~ ~ ! g a ",
"W W V g d y . T w.6.6.6.;.;.#.;.#.` ` ` ` ` ` ` ` ` } w.w.w.w.5.2.4.4.4.r.f.g.g.g.*.` ` ` ` >.6.6.w.w.p.p.i.p.q.* y W / / ~ W y ",
"p p s s s e . I w.6.6.6.6.6.6.6.>.> . . . .     .   6 5.6.6.6.>.+.+.+.+.M . O . . . . . . . T w.6.6.6.n.V.V.V.y., : d W Q W s e ",
"y w d Q ! V O T w.6.6.6.6.6.6.6.>.>                 6 w.w.w.w.>.+.+.+.+.m                 . _ w.w.6.w.s.V.V.V.s., w Q ~ ^ W W e ",
"y w d W W g O R m.m.m.m.c.6.w.6.>.%           .     i P.Y.Y.Y.Z.4.2.,.4.D                   T w.6.6.6.<.<.<.<.@.@ e ! ^ ! W W y ",
"t w a d s a O X.C.C.V.V.p.w.6.6.>.%                 V ~./././.I.c.c.c.c.G                   T w.6.6.6.#. . .@._ # y ! ! W Y d y ",
"a d d d a w X X.B.m.M.M.i.6.6.w.,.b i i u i 9 9 6 6 Z f.g.g.g.-.` _ _ ` D 8 8 8 9 9 6 9 8 8 ' 5.5.4.4.#.+.+.+._ @ s / ^ / ^ ! y ",
"V E g E d a O T c.6.w.6.6.6.6.6.i.l.N.V.z.s.w.q.6.6.] O o o o .   o o   n 6.5.6.5.5.6.5.6.5.;.+.+.+.+.+.+.+.@._ @ : s d d d s e ",
") ( / ^ ( ^ + T i.6.6.6.6.6.6.6.i.M.V.V.V.M.6.6.5.6.] .                 l 6.6.5.w.6.6.w.6.6.;.+.+.+.+.+. .+.+._ @ : y y y a y t ",
"/ ~ W g E ! O =.U.U.U.U.t.#.#.#.:.i.p.p.v.1.j 8 h 8 1 .     .       .   > 9 8 8 9 ` w.6.w.5.4.,.4.4.2.#.+.+.+.[ @ a ! W V V d y ",
"~ Q W d g E o d./.^.^.~.9.} +.+.@.5.6.6.6.#.O           .     .     o . .         D w.w.w.6.6.w.6.6.6.#.+.+.+._ @ t E E V d s y ",
"~ ~ Q ! ! W + -.Y.U.U.U.t.#.#.#.#.i.p.p.p.%.+           . . .   X       .         F w.w.6.6.,.5.5.4.4.#.+.+.+.] @ w g d d d s y ",
"g V W W ! Q $ T c.6.6.6.6.6.6.6.i.N.V.V.V.e.+ .                           .       F w.6.6.6.;.+.+.+.+.+.+.+.+._ @ : y e y e e r ",
"d E Q ! Q E O T w.6.6.6.6.6.6.6.i.M.V.V.V.e.+           . X .   .   .   . .       G w.6.6.6.;.+.+.+.+.+.+.+.+._ @ q s y s s s y ",
"W Q ~ ^ / ! O T w.6.6.6.6.6.6.6.6.i.i.i.p.%.+       7 O.O.O.O.{ _ T _ T c         F 6.6.6.6.4.2.2.2.3.#.+.+.+._ @ q s y y y p y ",
"d g W W Q E O T w.6.6.6.6.6.6.6.6.6.6.6.6.| +       x V.C.C.C.M.w.w.6.c.P         F c.6.6.6.6.6.6.6.6.#.+.+.+._ + : s y e e e e ",
"W ! ! ~ ~ V X P 4.4.4.4.5.6.6.6.w.i.p.p.v.1.h 6 6 6 J m.n.M.m.v.6.6.6.6._ 3 3 3 < I 6.6.w.w.m.N.B.B.N.3.#.;.;.+.@ e Q W g s s s ",
"~ ^ ~ ^ ~ V O D +.+.#.+.,.w.6.w.i.N.V.V.V.M.6.5.6.5.5.w.w.6.w.6.6.6.6.6.;.+.+.+.[ >.6.6.5.w.P.~.~.~.W.b.6.6.6.2.> e W W E g s s ",
"Q Y g d d a O D #.+.+.+.,.6.w.5.w.M.Z.V.V.M.6.6.6.w.6.6.6.6.6.6.6.6.6.w.3.+.@.+.+.2.6.6.6.6.K.!.W.W.R.b.6.6.6.2.> w s s s s e e ",
"/ / ~ V d g O P 4.4.,.,.6.w.6.w.6.<.<.<.%.<.6.6.6.6.6.w.6.6.6.6.6.6.6.6.N.L.L.L.L.m.6.6.w.6.8.7.7.7.7.6.6.6.6.2.> - y e e s y y ",
"g g g a w e . T c.w.w.w.w.w.w.w.5.@.+.+.+.#.6.6.6.w.6.6.6.6.6.6.6.w.w.w.A./.^././.A.6.6.6.w.;.+.+.+.+.5.w.6.6.,.> : a e y V d d ",
"w e a y w w . F | :.%.%.:.>.:.:.:..._ _  . .#.>.:.:.:.:.:.:.:.:.:.>.:.>.y.G.G.G.G.h.:.:.:.:.+.] [ [ [ ;.%.%.;.} @ s / ~ ! ( Q s ",
"e Y ! Q Q ! q ; 4 2 < > X.y.y.y.y.1.:.:.:.:.:.:.:.:.:.:.:.:.:.y.H.H.H.H.j.:.:.>.>.:.>.>.:.:.:.>.>.:.:.h > 2 2 4 ; Q ( ( ^ / ! p ",
"w W ^ ~ ! Q W g g g a X &.C.C.C.V.c.6.6.6.6.c.6.w.w.w.6.6.6.6.V.Q.!.~.~.S.6.w.w.6.6.6.6.6.6.6.6.6.6.6.8 & s f E Q ! ! ! Q Q W y ",
"w Y ~ W W W V g g g a X } v.i.i.i.i.6.6.6.6.m.M.M.M.s.w.6.6.6.w.n.b.b.a.i.5.w.w.6.6.6.6.6.6.>.#.;.#.#.6 : Q ! ! W W g g g V d e ",
"e s f d a a y a y y e X ' 6.6.6.6.6.6.6.6.c.V.V.V.V.m.6.6.w.6.6.6.6.6.6.6.w.6.w.6.6.6.6.6.6.;.+.+.+.+.5 : Q ! ^ / ^ Q g W Q f e ",
"Q W W V g a t s a y e X &.B.N.N.M.0.2.2.2.2.m.m.m.n.n.w.6.6.6.6.6.6.6.6.6.6.6.6.6.6.6.6.6.6.>.#.#.#.#.6 : Q Q Q ! ! Q W W Q f e ",
"! Q W E g a a s a a e X x.^.~.~.W.7. .+.@.#.5.6.w.w.w.w.6.6.6.6.6.6.6.6.w.6.6.w.6.6.6.6.6.6.6.6.6.6.6.8 w ^ ^ ^ ^ ! Q / / ^ g y ",
"g d g s s y e s a a q o x.~.Q.Q.R.7.+.+.+.#.q.w.6.6.6.6.6.6.6.6.6.6.6.w.6.6.w.6.6.6.6.6.6.6.6.6.6.6.6.8 : ! ! ! ! g g ! ~ Q g y ",
"y t a V Y g g Y Y g y o o.m.n.m.m.6.,.,.4.5.M.M.N.M.m.6.6.6.6.6.6.6.6.6.6.6.6.6.6.6.6.6.6.6.2.#.#.;.;.5 : ! ! W f f g Q ! W d e ",
"y w g ! Q W W Q Q ! f O [ 6.6.6.6.6.w.w.w.w.V.V.V.V.M.6.6.6.6.6.6.6.6.6.6.6.6.w.6.6.6.6.6.6.;.+.+.+.+.5 w ^ ^ ! g W ~ / ^ ! Q y ",
"t r s V V V g d s d p o ' 6.6.6.6.6.w.w.w.w.n.s.m.m.n.6.6.6.6.6.v.v.p.a.w.6.6.6.6.6.6.6.6.6.3.#.#.#.#.5 ; g g f g g Q Q W d f y ",
"t y s s y y s y e y w o ' 6.6.6.6.6.6.6.w.5.w.6.6.6.6.6.6.6.6.v.V.V.V.V.n.6.w.6.6.6.6.6.6.6.6.6.6.6.6.8 : E f E ! / ~ / / ~ W y ",
"g g g g s y d s a e q X ' 6.6.6.6.6.6.6.6.w.w.w.6.w.w.6.6.6.6.b.V.V.V.V.a.6.6.6.6.6.6.6.6.6.6.u.6.6.0.9 ; f e s Y Y Q Q Q Q Y e ",
"^ ~ ! ! ~ ! ! W ~ ! d O P #.#.#.#.5.6.6.6.w.M.M.M.M.n.6.6.6.6.i.i.i.w.i.w.6.w.6.6.2.#.#.#.#.B.T.Y.Y.Y.x $ e q r e e w w e e e e ",
") ( ! Q ^ ( ( ( ) ( W + K +.+.+.+.4.6.6.w.w.V.Z.V.V.M.6.6.6.6.6.6.w.6.6.6.6.6.6.6.;. .+. .+.J.^././.^.v : W E W Q Q W g d g f e ",
"! Q V s g ! ! ^ ~ ^ Y O I ;.;.;.;.6.6.6.6.i.n.m.m.m.b.6.6.6.6.6.w.6.6.6.w.5.w.6.6.>.| ;.;.;.z.K.K.K.K.k 0 ~ ! ~ Q Q W Y Y g s y ",
"~ ! Q W W W W g g g s X ' c.6.6.6.6.6.6.6.6.6.6.6.6.6.6.6.6.6.6.6.w.w.6.6.6.w.w.w.6.6.6.6.6.6.6.6.6.6.8 0 ! W W Y g g Y V g s y ",
"Q Q Q ! ~ ^ / ^ Q W g X ' w.w.6.6.6.6.6.6.6.6.6.6.6.6.6.6.6.6.6.6.6.6.6.w.6.5.w.6.6.6.6.6.6.6.6.6.6.6.8 = f d s s s a a s a y e ",
"s g Q W Q Q ! ! W V s X ' w.6.w.6.6.6.6.6.6.6.6.6.6.6.6.6.6.6.6.6.6.w.6.w.w.w.w.6.,.;.;.;.;.4.6.6.6.5.8 - E d y e s y y a y y y ",
"Y W ~ ^ ~ ~ ^ ! ! / Q + [ 6.6.6.6.6.6.6.6.6.6.6.6.6.6.6.6.6.6.6.5.w.6.6.6.6.w.w.6.>.+.+.+. .>.6.6.6.6.8 : E g s a s p p a a s a ",
"V W ! ~ ~ ^ ~ V V ^ Q X [ 6.5.5.6.6.6.6.6.6.w.6.6.6.6.p.p.p.b.i.w.w.6.6.w.w.i.w.v.2.@.#.#.#.4.6.6.6.6.9 - d s a a s s a e e e y ",
"d V W Q W W d s d Q V O L @.+.#.#.4.6.6.6.6.6.6.6.6.v.Y.W.Q.W.Y.w.6.w.6.p.V.V.V.V.n.6.6.6.6.6.6.6.6.6.8 & d d s s d d s y y e a ",
"~ / ^ / ^ Q g V ~ / Q o L +.@.+.+.4.w.6.6.w.6.6.6.6.i.Q.^.~.^.Y.w.q.6.6.p.V.V.V.V.n.6.6.6.6.6.6.6.6.6.8 2 ~ ~ Q Q ! ! Q W g d d ",
"! Q W V g g d Y Q ! Y X ` ,.>.>.>.6.6.6.6.6.6.6.6.6.i.B.A.A.S.B.w.5.6.6.w.p.p.p.p.i.6.6.w.6.6.w.6.6.6.8 - Y W V V g g d d s a y ",
"~ ~ W g g g ! ! ~ ^ Y O ' 6.6.6.6.6.6.6.6.6.6.6.6.6.6.6.6.6.6.6.w.6.w.w.6.6.6.6.6.6.6.6.6.6.6.6.6.6.6.8 & s y a s y y e a a w t ",
"~ ~ ! d y d Q ! ~ ~ W O $.m.m.n.m.6.4.4.4.4.6.6.6.6.6.6.6.6.6.6.w.6.5.w.w.i.p.i.i.i.6.6.6.6.5.4.4.4.5.8 & g s y s y y t t g d s ",
"e e a w w e y y y y e X x.^.~.Q.E.7.+.+.+.#.5.6.6.6.6.6.6.6.6.6.6.6.w.w.i.V.V.V.V.n.6.6.6.6.:.+.@.+.} 5 : W W W W W Y d g ! V d ",
"; ; : ; ; ; 2 : ; ; * o g.^.~.~.Q.7.+.+.+.#.5.6.6.6.6.6.6.6.i.6.6.6.6.6.p.V.V.V.V.n.6.6.w.6.;.+.} +.+.5 ; f Y Y g d Y g g Y s : ",
"F F K P ` ` ` ` ' ` ` _ u.m.M.m.m...#.2.2.2.6.6.6.6.6.6.6.6.6.6.w.6.w.5.w.p.p.p.p.i.6.6.w.@.k.D.J.D.J.#.I _ T T ` T ` _ F D D D ",
"+.+.+.,.c.c.c.6.w.w.6.w.6.6.6.6.6.U :.w.6.6.6.6.i.6.6.6.6.6.6.6.w.6.w.w.6.6.6.6.6.6.6.6.6.] F./.^./.~.n.6.w.w.c.w.w.6.6.;.+.+.+.",
"r.9.9.0.6.6.6.6.6.4.4.4.2.6.6.6.6.U %.6.6.6.6.w.6.6.6.6.6.c.6.6.6.6.6.6.6.6.6.6.6.6.6.6.6.{ x.T.Y.T.Y.n.w.i.p.i.w.6.6.6.;.#.#.#.",
"!.W.W.B.6.w.6.6.>.+.+.+.+.>.6.6.6.R %.6.6.6.6.6.w.6.6.w.6.6.6.6.6.6.6.6.w.6.6.w.6.6.6.6.6.] $.c.i.i.w.M.V.V.C.M.w.6.6.6.6.5.6.5.",
"~.~.^.A.6.6.6.w.,.+.+.#.+.>.6.6.6.R :.6.6.6.6.6.5.6.6.6.w.6.w.6.6.w.6.w.6.6.6.6.6.w.w.6.w.] | w.6.6.w.M.V.V.V.M.w.6.w.6.6.6.6.w.",
"N.N.N.v.6.6.6.6.6.4.4.4.4.6.6.6.6.U :.6.6.w.6.w.w.w.6.6.6.6.w.6.6.w.6.6.6.6.6.6.6.6.6.6.6.] | w.6.6.6.v.p.p.v.i.w.6.6.6.6.6.w.6.",
"6.w.6.6.6.6.w.w.6.6.w.w.6.6.6.6.6.R %.6.6.6.6.6.6.w.6.w.6.6.6.6.6.6.6.6.w.6.6.w.6.w.6.6.w.R @.w.6.6.6.6.w.w.6.c.w.w.6.6.w.w.w.w.",
"' [ } #.:.:.:.#.} [ ' [ +.:.:.:.:.R %.w.6.6.w.w.6.6.6.6.w.6.6.6.w.6.w.w.6.w.5.w.w.6.6.w.6.] [ 1.>.>.:.} } } ' | :.>.:.>.| } } ' ",
"o o O c H H H m + o o . 8 H H H A H %.w.6.6.w.w.w.6.6.w.w.w.w.6.6.6.6.w.6.6.w.w.6.w.6.6.6.] H H H H A * o o o , A H H H 5 . + X ",
"  . . j A A A c .       3 A A A A 9 h N n n N m N N n m m n n n n h n n n z l n n n n z c 6 c A A A M @       * A A D A ,       ",
"    . @ , , , *         # , , , , # e g y w d V W Q W W W a w e y p y y y t w t e w q : t $ % , < , , .       O , , , , +       "
};
