/* XPM */
static char *floor1639932889[] = {
/* columns rows colors chars-per-pixel */
"64 64 92 1 ",
"  c gray7",
". c #151515",
"X c #161616",
"o c gray9",
"O c #191919",
"+ c gray10",
"@ c #1B1B1B",
"# c gray11",
"$ c #1D1D1D",
"% c #1E1E1E",
"& c gray12",
"* c #202020",
"= c gray13",
"- c #222222",
"; c #232323",
": c gray14",
"> c #252525",
", c gray15",
"< c #272727",
"1 c #282828",
"2 c gray16",
"3 c #2A2A2A",
"4 c gray17",
"5 c #2C2C2C",
"6 c #2D2D2D",
"7 c gray18",
"8 c #2F2F2F",
"9 c gray19",
"0 c #313131",
"q c #323232",
"w c gray20",
"e c #343434",
"r c #353535",
"t c gray21",
"y c #373737",
"u c gray22",
"i c #393939",
"p c #3A3A3A",
"a c gray23",
"s c #3C3C3C",
"d c gray24",
"f c #3E3E3E",
"g c #3F3F3F",
"h c gray25",
"j c #414141",
"k c gray26",
"l c #434343",
"z c #444444",
"x c gray27",
"c c #464646",
"v c gray28",
"b c #484848",
"n c #494949",
"m c gray29",
"M c #4B4B4B",
"N c #4C4C4C",
"B c gray30",
"V c #4E4E4E",
"C c gray31",
"Z c #505050",
"A c #515151",
"S c gray32",
"D c #535353",
"F c gray33",
"G c #555555",
"H c #565656",
"J c gray34",
"K c #585858",
"L c gray35",
"P c #5A5A5A",
"I c #5B5B5B",
"U c gray36",
"Y c #5D5D5D",
"T c gray37",
"R c #5F5F5F",
"E c #606060",
"W c gray38",
"Q c #626262",
"! c gray39",
"~ c #646464",
"^ c #656565",
"/ c gray40",
"( c #676767",
") c #686868",
"_ c DimGray",
"` c #6A6A6A",
"' c gray42",
"] c #6C6C6C",
"[ c gray43",
"{ c #6F6F6F",
"} c gray44",
"| c #717171",
/* pixels */
"e<<eaw5ee5w2d((_QKK((KK(Mww<;aw5ee5wd<Z(](YKQ(_(KYdea<wl5aaw2ww5",
"lwwlZMxMMdlwdYFZMdxFYFFYxwdeaFMxxxldx2ZQFMddxBKKZFaee2dZlMMxlda5",
"d55lFFBxxdxexYFZdaaMMddla2aeaZZBMxxdx2FYFMldllxxlBw5w<xKMZBxxxa5",
"2;;elldae5e5dYBMZBBZBllle;5;;ldaeaawd<BZxxMBBMlaad<<5;aMdeeadaw2",
"w5eaae55w25<eZdwlxMBMxxMa2e52daw25w2e;MBwedMZBxldd%2a5eee5<2ww52",
"MBBMxew5e5e2dFledxMMxlMZdeBBxFxe5ew2e<BZdlxBZZZBZBwdZMxldw555w55",
"MMMxdawwe552lYBlFYYFZZFKawBBxZlewew<w;ZZMMZZZBMMFFelZxMldewww25w",
"w522we52w<<;eZdwadlawadMe2e5<ew5<w5;5<ZZ<wdxxlaexx25a<5w525w5<<2",
"we;<xBdMMMl5BYlZZQFaeMFZd%wd;2MMMxFlxeBKMBKKBllMZBd%ea.lFBMMxlee",
"<w<2MMdxlla2lZexMBMdxZZxx<5d5dFBlalwa2xBllxxddlBBxe%ea;Mxllxldew",
"+<<<aeww<25<lFxZde5exBxdd+%2%<e;a2w<ewMZBMxaadMFxd2.<< 5eww5www5",
"2wwwe525%%w5lKBFYMlMYQYYxeadead5w<2;deMBFZMldMZFKFlellwdaw<;;5w5",
"ZZZBllxxlaxaedew5+.<2<<5;2lxxlxlledeBaxlww5<<5w522;wxldlxMlaelle",
"]YYYBZYKQFQBea2;awedde25wB(_QKFKQFQZKdde+2w55ee5eaeF_Q(FMFYYYKBd",
"_ZFFlxFMKMYMwaw2ZZZFFBxl2BYFMdeaYFQZYddwwMKFZFFBeaeFYZKdlZKFFKMw",
"(MMMeaxwl5xa%5w2FZxddlld5ZKZBxdldeMdx5ww;dBMllleldwFKBFewlladld2",
"(xlZFFKZMMMdw<<<dlleeaee2BKMMMBZFBxlda5;<eldaaew5w5QBMMMZFZxxBl5",
"ZewddlMMdldw25eeae5<2222+lMeeadxBladaw555aaw222<55%BaedllMMddle;",
"YxlMMBFFxFFldBFZMlaw5aew5BZlxMBFKBBFBllBBBBlwwewaawKldMZBFKZZZxe",
"YldMBBBMlFZewlMdaaw25e522MBadMBZZlxZMwwxalde555w;22YxdlxBBxxBZl5",
"YddBZBxeaBBw<we;eewwaaw22xBadMMBdwdZx2;a25eaawee;22KxdxxBdwexBd2",
"(MxFFZMdMFZlwae2dxMMMBxlwZKBZFBZaaMKBe5ewwdMZMMMxdeQBBFFFxadZKxw",
"KxlMladdMMxa222<5dldaaae;xBlMMddadxBlw<<2<5dxdadde<FlxMxxdalBMd5",
"KMBZdaxZFZMa5;<2<eaw<255;xZxMMawBZFZxa2;2<5eew25w2%FBMxdadMZFMle",
"_FMBxeaBFFYd5dedae5w52<5adKFZFawBFZQZweeweeew5<<<waZYZKZ5lMMZKZd",
"a<%2<++5<;2;5MMBMllxxxxMlal52w;%<<%52;aBBBMxlllllxede;2<.;2<2w2.",
"d25dxdaxd5e5x_(QKZFYQYY(Mew;<aeall5ee5K](KFZFQ((YYxle2adaldaeae2",
"dweBKZBZBldwl(FBllxBBMMBlee5lKFFZFxxlaFYZMddxBBBBMeew5BKBBBxxlaw",
"2<5lBMldlea5aFBMldlxMdada5e5dZMxelalawMBFMldxxdadl<2<<lMdllddaw2",
"2<5alaewwwd5dKZBBMBZZxll5<2;2leawa5ewwBZMMMBZZMxxl5ww2aaaeaeee52",
"eeaae5222<w<eBlaxllMxldlw5a5eMad<e<2<<lx5edxMBxxdd2eawdew5<<222<",
"ZZZZMaeew5ewlKxdBBMZFZZFddFBBZae2e5wwwBBlMZZZBMMKZaMZMFMlaw5w5we",
"dddae555we<%ZK5axZFBxMBxaelxwwe2<we;2;FFalMZZBMMBxeexlaxw225w<;;",
"w55wadde5a2%MFaMMBxaedxM52we2wldwdd2w;BBwdxMleedMlw2w5<5leeddw22",
"w<;5lBMlBFxeMKxFKKBlxBFKa55w2eMMMFZdxwKFxFYFMlxZZMe5eewxBxMBMlae",
"5<<5dxledda2dBdBxdealMxllw222ellada2e<BBdxMdwaxBBl5<522dxlddaaew",
"<<255w5<;%<;dFMBMldxBFFZd5<2<we<22<%w;MMBBxaeMZZZMe252<5w52<<22<",
"wedaaewww2aexKMxMdedxMBZe5edald5awwwlwZMZZMedBZMMxeexledwe525ww2",
"FFFZBxMBMlMdwa2<<%++;%;<waFQZBZxxlldB5lw;<2+%<2;22<aFFMMxBMMMBMd",
"}_QKZFFKQF(Bea52MxxBBxdd2l_}FBFF(QYQ_al22dxldxMlaaeZ}]KZZYQKKYZl",
"(ZBxewlxMMxdaww2ZZBBMldl2ZKZBdwaZxMZBdaa5lFZBMMxde2YZBxewlBBBBMe",
"QZZZllZZlllew55<MMxlddaawZYFBMlMMaald2<2;exMllddlawQZBBMdxxdada2",
"FllxxMZBdlaw2252ddaw5www;lBlxxlMZMlxlw5e;wddew5www<FlllxBFZxlxd5",
"KdelxBZMxBxawaldddw225w5%lMalxxMFMxMleeaadxde55522<FdelMxMBMMMd<",
"(MdMBFKBxFFldxBMdlaw5eew5BZlxBZZFZZFBddMMMxle55e5wwYMdMBMBBBBFM5",
"YlaxxBMldMBawaldedaw5e5<2MZadMBxMMBFBdaxaeeewwwa252YldxxFZMlMZMw",
"FldxxxdwaMMe<5e25ddeada2<MBedMMl5waxd2;22<5aaeal55<Zlalxxle5axe<",
"YMBYKFBexYKlwee2exBMMZMaeKKMBYKZllZYZa5ewwdBZBMZxleQBBFKMMxMFYMw",
"ZladdawddlB5;2;<wwala52w2aFlalweadlxd5<<2weadaewae5lMdxa5dxMMMe2",
"(KFZMlxZQYQlwa55ew5ww5wa5lQFZFdaBFKYZa2<<25weww5;5wZYZKBelMBZZMd",
"Zxldw25lldl25laalew55225edZxdx2%dlxxleaaaeeww52<5daBZdla5adlxMla",
"w2252;<w5<5<dYYQFBBFKFBMxaa<;w;+52<<<wxK(YFZZFZZZZdd5%5w.+%%;<%.",
"awwlMxxxleawx_QQBMBKQQQYxew;5BMMBxaeweZ_YFMMZY((FFaa5<lMBBBxxxla",
"d5eBYKBBMddwdYBMldadxllxawa2dKFFBBMMldBQMlewdxxxxMadawBKMMMddde5",
"5;<dxlaaladelYZBBBBBxlllw2w<wxdeeeaaeexKKZMxBBxdll5e5<dllldaade5",
"5<2edwwe2<5<wBxlaxZKFMxMw<5%;deww5w525dFlddBFFMdMl2<;+wa5ww2252<",
"xBMlxe5wa;55aBlwxxxBMxldaeMZxlxd5ww;w;xxadllxMMxMd25BBdll2;<ww55",
"MZxlxawwa2wwxQBMZFYFZFKYaaMBldlw5ae5a2FKxMFYKFKFKZdlZBxxleweewww",
"aaw5ae2w25<+dZelaxxewaxMewdleeaw<55<5%MBwwdBxeeaMlw5de5ww5555;;;",
"55<2aladlxa<MZwxZKFddMZBw25w5elddxMed2ZFxMZKBddMBxw2ww5dllxMlde5",
"ww2wxBMBMBl5ZYaZZFMlMFZxa2552eBMxBBdl2FFBBZZMdxKZBw255wlBBMBBMde",
"2522adwa2w5<lZdBle5wlBxda222<wddwew<w;MMdddawexZBx5%<;<wee55we5;",
"<w22w2;252ewlKBBFlaMFKFKa2ww5we2ww52a5ZBBKZddZYYZMewae5awee55eew",
"axlllawaw<ewaZxlx5<eleaMawalddd5ew2<awFBdMd<<adeMlwexdwa5aa525ad"
};
