/* XPM */
static char *result[] = {
/* columns rows colors chars-per-pixel */
"64 64 22 1 ",
"  c #090614",
". c #1F0B42",
"X c #5B03C5",
"o c #5502BF",
"O c #4F00BB",
"+ c #4400B3",
"@ c #4900B6",
"# c #06050D",
"$ c #0D091E",
"% c #120927",
"& c #6308CA",
"* c #180C2E",
"= c #1B0D34",
"- c #7416D6",
"; c #6C10D1",
": c #7C1EDC",
"> c #2B0461",
", c #130B27",
"< c #240654",
"1 c #4300AF",
"2 c #370B6A",
"3 c #320766",
/* pixels */
"  # ####$,$$ $,$   ##### ,$$  =$######## *$   %$ #  #####%%$ #,*",
"#$..,##%=*$  *, # ..*##$=*$  == # =.= # ==$  ,*$##*..$# ,=$  %=%",
"# *, #%=,$ #   ## **$#$=*$ #   ## *=$# =*%$ #   ##%=% #*=% ##   ",
"#   ### ###  #####  ### #### ## ##  ### ####  ####  ### ####  # ",
"## $===,# %# ###### ===*  , ### ####*=== #, ########%==*$#%$####",
"## $===,  , ,* #### *=.=  , ,* #### ,=.=$#, $*$ ####,===$#,$$*, ",
"#$*$  $$ ## ,, ## ,$# $$ #  ,, ## =$$$,, ###,* ###,%  $, ###$*$ ",
"# $$   $ ##   #### ###  ### $ ####     $ ###$  ###  ##   ###  ##",
"##   ###$,## , ######### , # , ######### , # ,$ #########$$##%, ",
"%.=$####,.$# % #$==$####$.%# %  $==% ### .% #%$  *=, ####== #$$ ",
"$,*$#  #$*,  ### ,*,## # **% ## $,*, # ##,*, # $$%** #  #,=,   #",
"##  #### $$$ #  ##  #####$%% ## ## $ #### %$ ##  #   #### $$$$  ",
"########### ###%>22>>>>>>>>2><<>>323>>>>>>>2><<>%##########    #",
"######## %## $,<--;-X+OoO+o&O++O-:;-&@@oo@O&o++1. #######$ #  ,,",
"#$..,# %=, #$=,<--:&O@X&&Oo&O+@X--:;O+o&&OO&O+@O.#*.=$# ,*$##,=%",
"# *, #%.,$ #  #.@XX+@&-&&OX:&O+O@oX@+X-&&oo-;O++.#,*%##==, ##  #",
"#   #######   #.1@+o--o@+++O;;o++@+@;-X@+@+@&-X1.#  ### ####  ##",
"###$...,# ,## #.ooo;-o+++@@+O;;OXXO;-X++1+@+@&-o.# #,=..$#,$####",
"###$*==,# , ,= .oO@Xo@+@oXXO+@XoXO+XX@++oXXo++XO.#  $,==$#,$$=, ",
"#$,  $,$### ,% .oO@Xo@+@;::o+@XXXO@oXO@@&::X@+oo.#*,  $,$###$,$ ",
"## #    ###  ##.OOO;-XOo&-:;O@OOOOO&-XOOX;:-O@OO.#  ###  ###  ##",
"########$, # , .@O+O-:;X&-:&+@X@@O+@&:-X&-:;@+XO.########,$##,, ",
"%.* ####,.$# % .&-&@@;:&;-o+O-:XX-;@+&:;;-X+@;:&.*=, ####.= #$$ ",
" ,, ## #$*,  ##.O&:;@@oOOO+o--oOo&:-O+oOOO+O;:X@.$,, #  #,*, ###",
"##  #### $$$ ##.1o;:&OOXo@o-&O+@@O&:;OOXo@O;;O+1.#   #### $$$ ##",
"###########  ##.@&;&X@X;&O&-O+++OX;&XOo;&OX-X++1.# #######      ",
"##   ###$,## $,<::;-X@OoO+O&O++O::--&@@oO@O&o@++.#   ####,$$  ,,",
"#$..*# ,.,##$=%<--:&@@X&&Oo&O+@X-;:;O@o&;Oo&o@@o.#=..$# *=$  ,=,",
"# ,$ #%=,$##  #.@Xo+@&-X&OX:&O+@@oX@@X-&&oo-;o+@.#%*%##=*,$     ",
"#  ######### ##.1@+o-;O++++O&-o++@@@;-X@+@+O&-X1.#  ########  ##",
"###$...*#$*####.XXo--o+++@@+@&;oXXO;-o+++@@+@&-o.## *=..$#,$# ##",
"#  $*==,# , ,* .oO@Xo@++XX&O+@XoXO@XX@++oX&o++o@.#  %*=*$#,$$=, ",
"#%*$$$, ### ,%#.oO@XXO@@;::X++XXXO@oXO@@&::X@@oo.#,%  $$ ###$,$ ",
"#  $$$$ ### $##.@@O;-XOoX-:;@@OOOO@&-&OoX;:-O@O@.#  ##   ###  ##",
"##    ##$,##$, .Oo+@;:;X&::&+O&O@o@@&:-X&-:&@+&O.# #### #,,##,, ",
",.=$####,.$# , .&-&++&:&;-o1o::XX-;@+X:;&-X+@;:&.*.* ####== #$$ ",
"$,*$## # ,$$  #.o&:;@+OOO@+o--oOo&-:o+OOO@+o;-XO. *, #  #,*,$ ##",
"##  #####$$$$ #.+o;:&OOXo@X-&@++@O&:;OOXXOO-;O++.# $ #### %,$ ##",
"######### #  ##.@&;&X@X;XO&-O11+OX;&XOo;&OX-o+++.#  ######  $ ##",
"##   ###$,## %,<::--X+OoO+O&O++o::--&@@oO+@&O+++.#   ####$$#  *,",
"#$..,# ,=,## =%<;-:&@@X&;OX&O+@X-;:&@+X&;oo&O++O.#=..%# *=$ #,=$",
"# ,$ #$=$ ##   .+oo+@&-X&Oo-&O+@@Oo+@X-X&Xo-;O++.#%,$# **$ ##  #",
"## ######### ##.+O+o-;O++++O&-o++@+O--o++@+@&-X+.#  ########  ##",
"###$...*#$*####.XXo;;O+++@@+O&;oXXO;-o+++@@++X-o.#  *...$#,$# ##",
"#  $,*=,# $ *= .oO+oo@++X&&o+@XoXO@oX@++o&&o++oO.#  $,**$#$$$=, ",
"#$,$ $,$### %% .o@@XXO@@;::X+@XXXO@XXO@@&::X++oo.#*, #$$ ###$$ #",
"### ##  ####  #.@@O;-&OoX;:;@@OOO@@&-&OoX;:-O@O@.#   #   ###  ##",
"#  #####$*##$* .Oo+@;:;X&::X+O&OOo++&:-X&-:&+@&o.# ######,,##,, ",
"%.= ####,.$  $ .&-&@+&:&;-O1o::XX-;@1X-;&-X1O-:X.=.* ####== #   ",
" $,$#  # ,,, ##.O&:-O+OOO@+X--oOOX-:o+OOO@+o--X@. ,, #  #$*, ###",
"##  #####$$$$##.1o;:&OoXX@X-&@+++O&:;OOXXOo-;O@1.# $ #### $$$ ##",
"## ###### #  ##%<>>3>>>2>>>3><<<<>>>>>>23>>3><<<%# $ ######     ",
"#    ## ,,## ,*###  #### %### = ##   ### , ## *% #    ## ,$   *,",
"#$..,# *.,##$=,## ..=# ,=* # =, # =.= #%=*$ #**$ #=..$#$==$ #,=$",
"# ,$ #$=$ ##   ## ,, # =,$#    ###$$ # =,$ #  ####$, ##**%     #",
"##  #######  ##### #########  #### #########  ####  ########  ##",
"###,...*#$*# ######$...=  *   ##### .... #* # ######*...$#,%# ##",
"##  ,*=,# $ *, ###  ,,*,  % ,*$###  ,*=* #$ ,*, ##  $,*,$#$ $*$ ",
"# ,$ $,$### ,$### *$$ ,$ ## $$ ## *$  $$ ###$$$$ #,%  $$ ### $ #",
"######   ##  ####### #  ####  ##### ###  ###    #######  ###  ##",
"   #####$* #$* ##  ##### = # =$ #  ##### *$##*$ #   #####,,##%, ",
",..$## #,.$# $ #$..,## #$., #$  $.., ### ., #$   *.* ####== #   ",
" $,$   # %$$ ### $,$## # ,*$ ### $%% # ##%,%  ##  %%$#  #$,$$ ##",
"## $ # ##    #####  ## ## $$ ###### #####  $$ #####  ####  $$ ##"
};
