/* XPM */
static char *result[] = {
/* columns rows colors chars-per-pixel */
"64 64 155 2 ",
"   c #06342D",
".  c #0A352E",
"X  c #13342E",
"o  c #1C332E",
"O  c #073730",
"+  c #0A3631",
"@  c #053931",
"#  c #0C3A32",
"$  c #133C34",
"%  c #143F38",
"&  c #272C2C",
"*  c #2B2E2D",
"=  c #322F2E",
"-  c #3C2B2D",
";  c #26312E",
":  c #2A312F",
">  c #2A3130",
",  c #293B37",
"<  c #4C272C",
"1  c #4E282E",
"2  c #50262F",
"3  c #4B3D3F",
"4  c #553238",
"5  c #0E453C",
"6  c #0E493E",
"7  c #16433B",
"8  c #20443F",
"9  c #114B41",
"0  c #0F5348",
"q  c #135347",
"w  c #12574A",
"e  c #204741",
"r  c #244B44",
"t  c #2F4D47",
"y  c #284F49",
"u  c #375A54",
"i  c #166155",
"p  c #176F5F",
"a  c #1C6C5E",
"s  c #26655B",
"d  c #35645A",
"f  c #167060",
"g  c #197566",
"h  c #1B7967",
"j  c #1B7B6B",
"k  c #296E62",
"l  c #217465",
"z  c #247E6E",
"x  c #5A605F",
"c  c #4A6C67",
"v  c #4F6E68",
"b  c #6E6E6F",
"n  c #627F7A",
"m  c #80545B",
"M  c #1C806F",
"N  c #1C8371",
"B  c #1D8976",
"V  c #1E8D7A",
"C  c #1E937E",
"Z  c #238070",
"A  c #218876",
"S  c #63817C",
"D  c #6E807B",
"F  c #1E9480",
"G  c #219581",
"H  c #2A9583",
"J  c #209A85",
"K  c #219E89",
"L  c #299C89",
"P  c #23A48D",
"I  c #28A18C",
"U  c #23A691",
"Y  c #2AA590",
"T  c #25AB94",
"R  c #2DA993",
"E  c #32AE99",
"W  c #26B29A",
"Q  c #2BB29C",
"!  c #35B19C",
"~  c #26B9A0",
"^  c #29BCA3",
"/  c #31B7A1",
"(  c #31B9A1",
")  c #6C8681",
"_  c #728C89",
"`  c #29C2A6",
"'  c #2AC3A9",
"]  c #27CAAE",
"[  c #2AC9AD",
"{  c #38C4AD",
"}  c #2CCDB1",
"|  c #3ACEB5",
" . c #2DD2B5",
".. c #2FD7B9",
"X. c #2FDBBC",
"o. c #35D2B7",
"O. c #3DD3B9",
"+. c #31DBBE",
"@. c #3DD9BE",
"#. c #4ACEB6",
"$. c #57C4B1",
"%. c #41D3B8",
"&. c #7DC8BA",
"*. c #32DFC1",
"=. c #3CDDC1",
"-. c #3AE1C3",
";. c #45DFC5",
":. c #6DDFCB",
">. c #44E6CB",
",. c #44EACD",
"<. c #48EACF",
"1. c #53E9CE",
"2. c #46EDD1",
"3. c #4AEDD1",
"4. c #54EDD3",
"5. c #58EFD5",
"6. c #4AF1D3",
"7. c #65E5CE",
"8. c #77E1CE",
"9. c #7AE5D2",
"0. c #7FEBD9",
"q. c #9CAEAA",
"w. c #A5A7A7",
"e. c #A1AFAD",
"r. c #A0B2B1",
"t. c None",
"y. c #A9C3BF",
"u. c #BCC9C7",
"i. c #87E9D6",
"p. c #84F0DF",
"a. c #8CF4E2",
"s. c #9BF5E5",
"d. c #A2F5E7",
"f. c #A6F6E9",
"g. c #ACF6E9",
"h. c #B5F6EC",
"j. c #BBF6EB",
"k. c #BBF8ED",
"l. c #CDD5D3",
"z. c #CED8D7",
"x. c #D7DEDD",
"c. c #C2E3DD",
"v. c #CFE5E1",
"b. c #DDE6E4",
"n. c #C7F6EE",
"m. c #C2F9EF",
"M. c #CCF9F1",
"N. c #D2FAF3",
"B. c #DBFAF5",
"V. c #E1E7E4",
"C. c #EDF0F0",
"Z. c #E6FDF8",
"A. c #ECFDFA",
"S. c #F3FDFC",
"D. c #FEFEFE",
/* pixels */
"t.t.t.t.t.t.t.t.t.t.t.t.t.t.t.t.t.t.t.t.t.t.t.t.t.t.t.t.t.t.t.t.t.t.t.t.t.t.t.t.t.t.t.t.t.t.t.t.t.t.t.t.t.t.t.t.t.t.t.t.t.t.t.t.",
"t.t.t.t.t.t.t.t.t.t.t.t.t.t.t.t.t.t.t.t.t.t.t.t.t.t.t.t.t.t.t.t.t.t.t.t.t.t.t.t.t.t.t.t.t.t.t.t.t.t.t.t.t.t.t.t.t.t.t.t.t.t.t.t.",
"t.t.t.t.t.t.t.t.t.t.t.t.t.t.t.t.t.t.t.t.t.t.t.t.t.t.t.t.t.t.t.t.t.t.t.t.t.t.t.t.t.t.t.t.t.t.t.t.t.t.t.t.t.t.t.t.t.t.t.t.t.t.t.t.",
"t.t.t.t.t.t.t.t.t.t.t.t.t.t.t.t.t.t.t.t.t.t.t.t.t.t.t.t.t.t.t.t.t.t.t.t.t.t.t.t.t.t.t.t.t.t.t.t.t.t.t.t.t.t.t.t.t.t.t.t.t.t.t.t.",
"t.t.t.t.t.t.t.t.t.t.t.t.t.t.t.t.t.t.t.t.t.t.t.t.t.t.t.t.t.t.t.t.t.t.t.t.t.t.t.t.t.t.t.t.t.t.t.t.t.t.t.t.t.t.t.t.t.t.t.t.t.t.t.t.",
"t.t.t.t.t.t.t.t.t.t.t.t.t.t.t.t.t.t.t.t.t.t.t.t.t.t.t.t.t.t.t.t.t.t.t.t.t.t.t.t.t.t.t.t.t.t.t.t.t.t.t.t.t.t.t.t.t.t.t.t.t.t.t.t.",
"t.t.t.t.t.t.t.t.t.t.t.t.t.t.t.t.t.t.t.t.t.t.t.t.t.t.+ + O # # + + O + + + @ t.t.t.t.t.t.t.t.t.t.t.t.t.t.t.t.t.t.t.t.t.t.t.t.t.t.",
"t.t.t.t.t.t.t.t.t.t.t.t.t.t.t.t.t.t.t.t.t.t.t.t.t.t.. + . . . + + + + # # + = t.t.t.t.t.t.t.t.t.t.t.t.t.t.t.t.t.t.t.t.t.t.t.t.t.",
"t.t.t.t.t.t.t.t.t.t.t.t.t.t.t.t.t.t.t.t.t.t.t.t.t.t.                        * t.t.t.t.t.t.t.t.t.t.t.t.t.t.t.t.t.t.t.t.t.t.t.t.t.",
"t.t.t.t.t.t.t.t.t.t.t.t.t.t.t.t.t.t.t.t.t.t.t.t.t.m n n n n n S n n n n n S b t.t.t.t.t.t.t.t.t.t.t.t.t.t.t.t.t.t.t.t.t.t.t.t.t.",
"t.t.t.t.t.t.t.t.t.t.t.t.t.t.t.t.t.t.t.t.t.t.t..   q.D.D.D.D.D.D.D.D.D.D.D.D.x.e . X t.t.t.t.t.t.t.t.t.t.t.t.t.t.t.t.t.t.t.t.t.t.",
"t.t.t.t.t.t.t.t.t.t.t.t.t.t.t.t.t.t.t.t.t.t.t.+ . q.D.D.D.D.D.D.D.D.D.D.D.D.x.8 . . t.t.t.t.t.t.t.t.t.t.t.t.t.t.t.t.t.t.t.t.t.t.",
"t.t.t.t.t.t.t.t.t.t.t.t.t.t.t.t.t.t.t.t.t.t.&     q.D.D.D.D.D.D.D.D.D.D.D.D.x.8   . t.t.t.t.t.t.t.t.t.t.t.t.t.t.t.t.t.t.t.t.t.t.",
"t.t.t.t.t.t.t.t.t.t.t.t.t.t.t.t.t.t.t.t.t.t.x c c y.Z.Z.Z.Z.Z.Z.Z.Z.Z.A.S.S.v.k i i t.t.t.t.t.t.t.t.t.t.t.t.t.t.t.t.t.t.t.t.t.t.",
"t.t.t.t.t.t.t.t.t.t.t.t.t.t.t.t.t.t.t.t.t.t x.D.S.n.d.d.f.f.f.d.f.f.f.j.N.N.j.@... .a X . t.t.t.t.t.t.t.t.t.t.t.t.t.t.t.t.t.t.t.",
"t.t.t.t.t.t.t.t.t.t.t.t.t.t.t.t.t.t.t..   y V.D.D.M.d.d.s.d.d.d.d.d.s.h.N.N.h.@.+.+.a . # t.t.t.t.t.t.t.t.t.t.t.t.t.t.t.t.t.t.t.",
"t.t.t.t.t.t.t.t.t.t.t.t.t.t.t.t.t.t.t.+   r V.D.D.M.d.d.d.d.d.d.d.s.d.k.N.N.h.@.+.+.a . + t.t.t.t.t.t.t.t.t.t.t.t.t.t.t.t.t.t.t.",
"t.t.t.t.t.t.t.t.t.t.t.t.t.t.t.t.t.t.t.u u v b.D.S.n.s.f.f.d.d.f.g.h.h.h.j.j.d.>.+.+.p . O t.t.t.t.t.t.t.t.t.t.t.t.t.t.t.t.t.t.t.",
"t.t.t.t.t.t.t.t.t.t.t.t.t.t.t.t.t.t.D C.C.C.N.N.N.h.d.d.d.f.d.f.Z.D.S.g.1.4.4.,.<.<.l .   t.t.t.t.t.t.t.t.t.t.t.t.t.t.t.t.t.t.t.",
"t.t.t.t.t.t.t.t.t.t.t.t.t.t.t.1 +   D D.D.D.B.N.N.h.d.d.d.d.s.f.A.D.D.g.2.<.3.3.3.<.l   O t.t.t.t.t.t.t.t.t.t.t.t.t.t.t.t.t.t.t.",
"t.t.t.t.t.t.t.t.t.t.t.t.t.t.t.1 +   ) D.D.D.N.M.N.h.s.d.d.d.d.f.Z.D.D.g.<.3.3.<.<.<.l   + t.t.t.t.t.t.t.t.t.t.t.t.t.t.t.t.t.t.t.",
"t.t.t.t.t.t.t.t.t.t.t.t.t.t.t.1 + . ) D.D.S.N.M.M.k.g.g.f.f.f.g.Z.D.D.g.5.5.5.3.6.<.Z 5 6 4 t.t.t.t.t.t.t.t.t.t.t.t.t.t.t.t.t.t.",
"t.t.t.t.t.t.t.t.t.t.t.t.t.t.t.1 +   ) D.D.S.h.f.f.N.S.S.A.n.M.M.N.N.N.M.k.m.g.4.3.3.o.' [ H > : - t.t.t.t.t.t.t.t.t.t.t.t.t.t.t.",
"t.t.t.t.t.t.t.t.t.t.t.t.t.t.t.1 O   ) D.D.S.g.d.d.B.D.D.S.N.N.N.N.N.N.N.N.N.k.4.2.3.-.+.*.U # . ; t.t.t.t.t.t.t.t.t.t.t.t.t.t.t.",
"t.t.t.t.t.t.t.t.t.t.t.t.t.t.t.<     ) D.D.S.g.d.d.B.D.D.S.N.N.M.N.N.N.N.N.N.k.4.3.2.=.X.+.P . . o t.t.t.t.t.t.t.t.t.t.t.t.t.t.t.",
"t.t.t.t.t.t.t.t.t.t.t.t.t.t.t.4 7 % _ D.D.A.h.d.f.N.D.D.A.M.M.M.M.M.M.M.M.M.j.1.<.>.-.X.*.P # . o t.t.t.t.t.t.t.t.t.t.t.t.t.t.t.",
"t.t.t.t.t.t.t.t.t.t.t.t.t.t.t.w.z.l.c.h.h.j.Z.A.A.m.s.d.d.s.s.s.s.s.s.s.s.s.i.E Y Y O.,.2.E # . o t.t.t.t.t.t.t.t.t.t.t.t.t.t.t.",
"t.t.t.t.t.t.t.t.t.t.t.t.X O $ u.D.D.B.s.d.g.S.D.D.h.a.a.a.a.a.a.a.p.a.a.a.a.9.L F F | 6.6.! # + o t.t.t.t.t.t.t.t.t.t.t.t.t.t.t.",
"t.t.t.t.t.t.t.t.t.t.t.t.X O $ u.D.D.B.d.d.g.S.D.D.j.p.a.a.a.a.a.a.a.a.a.a.a.9.L F G | 3.6.! # + o t.t.t.t.t.t.t.t.t.t.t.t.t.t.t.",
"t.t.t.t.t.t.t.t.t.t.t.t.o + $ u.D.D.B.d.d.g.A.D.D.h.a.a.a.a.a.a.a.a.a.a.a.a.9.L G G | 3.6.! # @ t.t.t.t.t.t.t.t.t.t.t.t.t.t.t.t.",
"t.t.t.t.t.t.t.t.t.t.t.t.o O # u.D.D.B.d.d.f.N.Z.B.g.a.a.a.a.a.a.a.a.a.a.a.a.9.L F G | 3.6.O.T T I 3 t.2 t.t.t.t.t.t.t.t.t.t.t.t.",
"t.t.t.t.t.t.t.t.t.t.t.t.o O $ u.D.D.B.d.d.f.M.N.N.f.a.a.a.a.a.a.a.a.a.a.a.a.9.L G G | 6.6.-.X.-.} 0   O t.t.t.t.t.t.t.t.t.t.t.t.",
"t.t.t.t.t.t.t.t.t.t.t.t.X . $ u.D.D.B.d.d.f.M.M.N.f.a.a.a.a.a.a.a.a.a.a.a.a.0.L F G | 3.3.>.+.+.[ q . + t.t.t.t.t.t.t.t.t.t.t.t.",
"t.t.t.t.t.t.t.t.t.t.t.t.o . $ u.D.D.B.d.d.f.M.N.N.f.a.a.a.a.a.a.a.a.a.a.a.a.9.L F G O.3.2.>.+.*.} q + + t.t.t.t.t.t.t.t.t.t.t.t.",
"t.t.t.t.t.t.t.t.t.t.t.t.o . $ u.D.D.Z.m.k.h.8.:.:.i.a.a.a.a.a.a.a.a.a.a.a.a.9.L F G I R R Y P K J 5   + t.t.t.t.t.t.t.t.t.t.t.t.",
"t.t.t.t.t.t.t.t.t.t.t.t.o . $ u.D.D.A.N.N.j.O.] ] 7.a.a.a.a.a.a.a.a.a.a.a.a.9.L F F N h h h g j g 5 . + t.t.t.t.t.t.t.t.t.t.t.t.",
"t.t.t.t.t.t.t.t.t.t.t.t.o . $ u.D.D.A.M.N.j.%.[ } 7.a.a.a.a.a.a.a.a.a.a.a.a.9.L C G N h j j j j g 5 . # t.t.t.t.t.t.t.t.t.t.t.t.",
"t.t.t.t.t.t.t.t.t.t.t.t.X . 7 u.D.D.S.N.B.j.O.} ] 7.a.a.a.a.a.a.a.a.a.a.a.a.9.L C C N h j j j j f 5 . O t.t.t.t.t.t.t.t.t.t.t.t.",
"t.t.t.t.t.t.t.t.t.t.t.t.X . $ u.D.D.N.a.a.p.;.=.=.#.$.$.$.$.$.$.$.$.$.$.$.$.$.Q W W U P P J B B z 5 + # t.t.t.t.t.t.t.t.t.t.t.t.",
"t.t.t.t.t.t.t.t.t.t.t.t.o . $ u.D.D.h.<.2.3.3.3.3./ F F F F V F G C F F F F F ] } } } } } ^ G G V 5 . O t.t.t.t.t.t.t.t.t.t.t.t.",
"t.t.t.t.t.t.t.t.t.t.t.t.o   $ u.D.D.h.3.2.3.3.3.3./ F F G G G G G G G G C F K [ } } } } } ^ G G B 6 . O t.t.t.t.t.t.t.t.t.t.t.t.",
"t.t.t.t.t.t.t.t.t.t.t.t.X   $ u.D.D.j.<.3.3.3.3.6./ F F F F F F F F C F F G K ] } } } } } Q J G V 6   @ t.t.t.t.t.t.t.t.t.t.t.t.",
"t.t.t.t.t.t.t.t.t.t.t.t.t.t.t.t.r.e.&.3.3.<.{ ( ( / U Y T T T T T T U U T T T T T T ` } } W f f a t.t.t.t.t.t.t.t.t.t.t.t.t.t.t.",
"t.t.t.t.t.t.t.t.t.t.t.t.t.t.t.t.+   z 3.3.;.A z j T  .} } } } } } } } } } } ^ N j j W }  .J # . o t.t.t.t.t.t.t.t.t.t.t.t.t.t.t.",
"t.t.t.t.t.t.t.t.t.t.t.t.t.t.t.t.t.. z 3.3.;.A j j T  .} } } } [ } } } } } } ^ N j j W } } K . . o t.t.t.t.t.t.t.t.t.t.t.t.t.t.t.",
"t.t.t.t.t.t.t.t.t.t.t.t.t.t.t.t.t.. z <.3.;.A j j T  .} } } } } } } } } } [ ^ N j j Q } } K # . ; t.t.t.t.t.t.t.t.t.t.t.t.t.t.t.",
"t.t.t.t.t.t.t.t.t.t.t.t.t.t.t.t.t.. z >.>.=.A j j T } } } } } } } } } } } } ^ N j j U ^ ^ C # + o t.t.t.t.t.t.t.t.t.t.t.t.t.t.t.",
"t.t.t.t.t.t.t.t.t.t.t.t.t.t.t.t.t.. j ..+.} B j j T } } } [ } } } } } [ } } ^ Z j j A J J g + . o t.t.t.t.t.t.t.t.t.t.t.t.t.t.t.",
"t.t.t.t.t.t.t.t.t.t.t.t.t.t.t.t.t.. g X.X.} B j j T } } } [ } } } } } } } } ^ N j h C F F g + . o t.t.t.t.t.t.t.t.t.t.t.t.t.t.t.",
"t.t.t.t.t.t.t.t.t.t.t.t.t.t.t.t.O   h *.*. .B j j T } } } } } } } } [ } } } ^ z j h C F J h + O o t.t.t.t.t.t.t.t.t.t.t.t.t.t.t.",
"t.t.t.t.t.t.t.t.t.t.t.t.t.t.t.t.- - d ~ ~ W B j j W } } } } } } } } ] } } } ` A M M M M M s t.t.t.t.t.t.t.t.t.t.t.t.t.t.t.t.t.t.",
"t.t.t.t.t.t.t.t.t.t.t.t.t.t.t.t.t.t.t.% # 9 B F F ~ } } } } } } } } } } } } ' J C C w + 5 t.t.t.t.t.t.t.t.t.t.t.t.t.t.t.t.t.t.t.",
"t.t.t.t.t.t.t.t.t.t.t.t.t.t.t.t.t.t.t.+ + 5 B F F ~ } } } } } } } } } } } } t.J C F w + t.t.t.t.t.t.t.t.t.t.t.t.t.t.t.t.t.t.t.t.",
"t.t.t.t.t.t.t.t.t.t.t.t.t.t.t.t.t.t.t.+   5 B F F W } }  .} } } } } } } [  .t.J C C w + @ t.t.t.t.t.t.t.t.t.t.t.t.t.t.t.t.t.t.t.",
"t.t.t.t.t.t.t.t.t.t.t.t.t.t.t.t.t.t.t.> * , j B B U ~ ~ ~ ~ ~ ~ ~ ~ ~ ~ Q ^ T B B B r : ; t.t.t.t.t.t.t.t.t.t.t.t.t.t.t.t.t.t.t.",
"t.t.t.t.t.t.t.t.t.t.t.t.t.t.t.t.t.t.t.t.t.t., % 5 5 9 5 9 9 5 5 5 9 5 9 6 6 5 5 5 5 t.t.t.t.t.t.t.t.t.t.t.t.t.t.t.t.t.t.t.t.t.t.",
"t.t.t.t.t.t.t.t.t.t.t.t.t.t.t.t.t.t.t.t.t.t.> + . . +   X . . . +   + . . . + X + . t.t.t.t.t.t.t.t.t.t.t.t.t.t.t.t.t.t.t.t.t.t.",
"t.t.t.t.t.t.t.t.t.t.t.t.t.t.t.t.t.t.t.t.t.t.& O + + + X + . + + + + + + + + + + . . t.t.t.t.t.t.t.t.t.t.t.t.t.t.t.t.t.t.t.t.t.t.",
"t.t.t.t.t.t.t.t.t.t.t.t.t.t.t.t.t.t.t.t.t.t.t.o o o o o o o o o o o o o o o o o o o t.t.t.t.t.t.t.t.t.t.t.t.t.t.t.t.t.t.t.t.t.t.",
"t.t.t.t.t.t.t.t.t.t.t.t.t.t.t.t.t.t.t.t.t.t.t.t.t.t.t.t.t.t.t.t.t.t.t.t.t.t.t.t.t.t.t.t.t.t.t.t.t.t.t.t.t.t.t.t.t.t.t.t.t.t.t.t.",
"t.t.t.t.t.t.t.t.t.t.t.t.t.t.t.t.t.t.t.t.t.t.t.t.t.t.t.t.t.t.t.t.t.t.t.t.t.t.t.t.t.t.t.t.t.t.t.t.t.t.t.t.t.t.t.t.t.t.t.t.t.t.t.t.",
"t.t.t.t.t.t.t.t.t.t.t.t.t.t.t.t.t.t.t.t.t.t.t.t.t.t.t.t.t.t.t.t.t.t.t.t.t.t.t.t.t.t.t.t.t.t.t.t.t.t.t.t.t.t.t.t.t.t.t.t.t.t.t.t.",
"t.t.t.t.t.t.t.t.t.t.t.t.t.t.t.t.t.t.t.t.t.t.t.t.t.t.t.t.t.t.t.t.t.t.t.t.t.t.t.t.t.t.t.t.t.t.t.t.t.t.t.t.t.t.t.t.t.t.t.t.t.t.t.t.",
"t.t.t.t.t.t.t.t.t.t.t.t.t.t.t.t.t.t.t.t.t.t.t.t.t.t.t.t.t.t.t.t.t.t.t.t.t.t.t.t.t.t.t.t.t.t.t.t.t.t.t.t.t.t.t.t.t.t.t.t.t.t.t.t."
};
