/* XPM */
static char *dirt64_pnj1639932888[] = {
/* columns rows colors chars-per-pixel */
"64 64 255 2 ",
"   c #383601",
".  c #2B3500",
"X  c #572808",
"o  c #473A08",
"O  c #5A2D14",
"+  c #5A3717",
"@  c #51340E",
"#  c #67330C",
"$  c #633413",
"%  c #6A3513",
"&  c #6B3913",
"*  c #63341A",
"=  c #64391C",
"-  c #6C3C1C",
";  c #69341B",
":  c #723E1B",
">  c #723B16",
",  c #622C10",
"<  c #6B3C23",
"1  c #643B23",
"2  c #713C22",
"3  c #753E2A",
"4  c #512810",
"5  c #384806",
"6  c #395A0E",
"7  c #39640B",
"8  c #4B460A",
"9  c #494714",
"0  c #54431B",
"q  c #574319",
"w  c #4A5816",
"e  c #54531A",
"r  c #4C560F",
"t  c #69441D",
"y  c #75421D",
"u  c #7A441D",
"i  c #78481B",
"p  c #486916",
"a  c #5D4722",
"s  c #5C5624",
"d  c #644224",
"f  c #6C442B",
"g  c #694628",
"h  c #734424",
"j  c #7A4624",
"k  c #7D4A23",
"l  c #74442B",
"z  c #754A2D",
"x  c #7C4C2C",
"c  c #794629",
"v  c #67562C",
"b  c #7A532B",
"n  c #754C33",
"m  c #7B4D33",
"M  c #7B4B38",
"N  c #7E5133",
"B  c #7C543A",
"V  c #745634",
"C  c #6E5031",
"Z  c #4A7E2B",
"A  c #587B2C",
"S  c #5B7D34",
"D  c #566724",
"F  c #756B37",
"G  c #677A35",
"H  c #74763A",
"J  c #696E30",
"K  c #7C5A41",
"L  c #7A7A45",
"P  c #777041",
"I  c #824E2B",
"U  c #824C26",
"Y  c #84532C",
"T  c #8A552D",
"R  c #8B592C",
"E  c #845428",
"W  c #915B2E",
"Q  c #824E33",
"!  c #874C34",
"~  c #845434",
"^  c #8A5634",
"/  c #855936",
"(  c #8C5A34",
")  c #84553B",
"_  c #8B553B",
"`  c #855A3C",
"'  c #8C5C3B",
"]  c #925C34",
"[  c #935D3C",
"{  c #905631",
"}  c #8E603E",
"|  c #8E6036",
" . c #946135",
".. c #94623C",
"X. c #9A643D",
"o. c #9B6A3D",
"O. c #996437",
"+. c #976837",
"@. c #A26A3D",
"#. c #A6743E",
"$. c #85561E",
"%. c #8B5641",
"&. c #845B42",
"*. c #8B5C43",
"=. c #8A5C4B",
"-. c #835342",
";. c #935E42",
":. c #955E48",
">. c #8D6144",
",. c #88654A",
"<. c #946443",
"1. c #9B6543",
"2. c #956946",
"3. c #9D6B44",
"4. c #94644B",
"5. c #9A654B",
"6. c #966A4B",
"7. c #9C6B4B",
"8. c #9D724A",
"9. c #9C6C53",
"0. c #966A54",
"q. c #9C7254",
"w. c #987659",
"e. c #8C714F",
"r. c #A36D44",
"t. c #A26D4B",
"y. c #A56A45",
"u. c #A47245",
"i. c #A4734C",
"p. c #AA744D",
"a. c #AC7A4D",
"s. c #A97647",
"d. c #B37A4C",
"f. c #A36E55",
"g. c #A47453",
"h. c #AA7653",
"j. c #AC7B54",
"k. c #A3745A",
"l. c #A5795B",
"z. c #AC7B5B",
"x. c #A97658",
"c. c #B27C54",
"v. c #B27D5B",
"b. c #B77B59",
"n. c #AC7D64",
"m. c #A67A64",
"M. c #B57B63",
"N. c #4D832A",
"B. c #58872C",
"V. c #4B8935",
"C. c #548433",
"Z. c #5B8432",
"A. c #5B8C3A",
"S. c #568B35",
"D. c #5B963B",
"F. c #4F9134",
"G. c #658838",
"H. c #62943B",
"J. c #639A3E",
"K. c #669739",
"L. c #73843B",
"P. c #59A33F",
"I. c #69A33C",
"U. c #73AA3E",
"Y. c #5A9B42",
"T. c #768848",
"R. c #639C42",
"E. c #6A9B42",
"W. c #6A9843",
"Q. c #759847",
"!. c #77984F",
"~. c #5EA542",
"^. c #6BA444",
"/. c #6AA747",
"(. c #74AB4C",
"). c #75A749",
"_. c #78B34D",
"`. c #77AB54",
"'. c #7AB555",
"]. c #6EB151",
"[. c #7FBA66",
"{. c #7EC05F",
"}. c #898955",
"|. c #869A56",
" X c #899250",
".X c #B6844F",
"XX c #AD815A",
"oX c #B58255",
"OX c #BA8556",
"+X c #B4825B",
"@X c #BA845C",
"#X c #BD8A5D",
"$X c #B98959",
"%X c #A8804F",
"&X c #84A94C",
"*X c #82B54D",
"=X c #87A858",
"-X c #85B758",
";X c #91B258",
":X c #AD8162",
">X c #AD826A",
",X c #B48363",
"<X c #BA8664",
"1X c #BC8B63",
"2X c #BC8B6A",
"3X c #B68669",
"4X c #BD9266",
"5X c #B58973",
"6X c #BA9174",
"7X c #97B967",
"8X c #94B168",
"9X c #A7B672",
"0X c #C18A5C",
"qX c #C5935E",
"wX c #C28C64",
"eX c #C38E6B",
"rX c #C68C65",
"tX c #C49264",
"yX c #C4926C",
"uX c #CA946C",
"iX c #CD996C",
"pX c #C89768",
"aX c #D29B6C",
"sX c #C59472",
"dX c #CB9673",
"fX c #CC9A73",
"gX c #CC9C7A",
"hX c #C69878",
"jX c #D29C73",
"kX c #D39D7B",
"lX c #C28F74",
"zX c #CDA175",
"xX c #D4A37C",
"cX c #DBA57C",
"vX c #DCAA7D",
"bX c #D6A474",
"nX c #D4A36D",
"mX c #E4B27D",
"MX c #8BC55A",
"NX c #94C55D",
"BX c #97C766",
"VX c #9BC876",
"CX c #8ECB63",
"ZX c #A7C977",
"AX c #A5CB6C",
"SX c #DBA683",
"DX c #DBAB84",
"FX c #D8A787",
"GX c #DFAE90",
"HX c #E1AD84",
"JX c #E6B28A",
"KX c #EBB791",
"LX c #CD9E84",
"PX c #BDD287",
"IX c #C4D88D",
/* pixels */
"G S Z.S.Y.Y.Z G.Z S.Y.V.C.B.S.A.Z.C.A.Z.S.A.C.Z Z C.C.Z A C.A B.G.A C.C.S.B.S G.S A.S.G.G.S A B.A Z.A.A.C.C.F.V.A S V.V.A A A C.",
"A S A.N.V.F.Z A.J.J.F.V.C.B.C.V.A.S.C.Z Z A.A.S.Z V.Z C.A.A.A.W.H.G.Y.V.N.N.Z.L.G.A.Z Z C.G.K.Q.K.G.S.Z Z D.Y.V.A Z V.F.A S A.D.",
"G.H.^.J.F.~.H.H.Q.Q./.Y.J.S.D.(.R.D.D.S.D.W.A.H.J.R.S.S.R.Y.R.E.`.E.Y.Y.F.B.K.J.D.^.D.F.Y.Y.H.E.(.W.W.S.S.D.D.K.Y.A.D.Y.H.W.R.Y.",
"-X^.^.J.D.D.J.W.=X&XR.D.^./.`.'./.^.J.D.^.^.I._.).-X-X'.(./.Y.Y.=X!.R.~.I.D./.I.].{.{.].~.~.R.(.(.W.W.W.R.^.I.(.!.&X-X'.).(.~.~.",
"_.I.^.(.I./.E.Q. X X(.~./.].'.-X_./.I.J.K.I.U.U._.-XMX_./.P.Y./.!.!.(./.I.K.U.K._.{.]./.~.^.J.).!.R.Q.W.J./.I.).*X*XMX-X).^.~.P.",
"CXMXCX'.(.(.H.G.8 r W.^.(.^./.I.K.S.^.^._.MXNXNXNXU.K.U./.(./.W.5 w ).'.*X).*XMXI.I./././._.K.p 6 C.Q.!.).'.NXNXNX_.I.^.).).].~.",
"MXCXCX-X_.&XQ.T.o o Q.'.=X!./.I.`.H.Q.*X*X;XNXNXCXU.U.).I.'.-XW.  w -X-X;X X&X*XI.(.).E./.-X!.5 5 S T.=X-X'.MX;XAXMXI.U.).E.'.].",
"MXMXCXVXBX Xp 9 + o =X=XA 6 H.CXZ.r B.7XBXBXNXBXNX*X*XB.7 Z.;X|.9 9 *X).&X&X;XNX*X'.Q.D p ;X|.e 5 e w !.VX7XBXBX;XBX_.).A 7 !.-X",
"AXVXVXPXIX|.  o # q 8X9XD . W.ZXG . D PXZXAXAXBXAXNX7XZ.. A PX}.+ 9 ].].!.|.9XAXNXBXQ.. r ZX8Xe + o   |.PXPXPX8XAXAXCX8Xw    X9X",
"G !.7X!.H F v a h $ J L s @ H 8X}.0 v T.L.7X7XG.G.Q.7XG 5 v P P + 9 `.[.G J H L.I.7XT.9 e H F = + f 1 J P !.8X[.G.L.=X8Xr 8 F T.",
"8 L.9XL   + n M $ O @ 5 + 0 L 9Xe.V a   q 8X9Xr 5 L.9XH o q @ @ + 0 8XPXr   8 . J 8XL 0 @ q + + 1 &.K @ . P VX!.  r 8X|.s + o o ",
"@ F }.J v v l _ ! ) v a g g F e.P B V a v }.}.e 9 P }.v d C d M K K T.T.H b i t F }.P g d h l Q M M n s a P !.L 8 e }.P b h g C ",
"t q q v w.w.K _ x.M.,.,.,.` V a C f K w.K 0 + 0 q 0 + C ,.&.&.6.9.k.e o 4XzXi.g.B t m *.4.;.%.M.M.%.! w.w.v o 9 + + 0 0 / *.` ,.",
"z = + V L K -.-.M.n.K K ` } B + C K ,.e.e.a 1 3 g d d &.0.%.=.;.M.x.j X %X#Xh.g.) O z *.%.=._ M.f.%.M =.e.V a C g C + d 5.;.` ` ",
"=.-.[ ~ 1 f _ ! b.M.M < t h l < f K f + f =.=.-.=.! f 1 1 < f ~ h.t.1.' 8.%X%Xg._ 2 l g d f l f.m.4.%.< a K &.-.&.=.1 1 3 < < g ",
"%.5.;.c + 1 ) _ b.M.l < d t < < f K 3 1 3 -.:.:.:.3 2 1 2 l * x +Xz.( ^ %X%X8.g.! 2 $ < f + < n.3X-._ 3 O n *.:.4.-.h 2 ; h < 1 ",
"[ v.uX1X2Xl.( E y.:.[ { b.dX+XtXa.x <.<XM.uXeXy.' oX1X#X2Xz._ [ 2.2.2X5X2.| } | t.sX+XyX,X~ [ 1.:.:.! i.1X#XyXM.' 7.#XtXtX#X7.^ ",
"] +XxXxXjX1X' R [ ;.[ y.rXHXbXvXXXY t.SXkXkXdXy.R pXvXbXHXyX[ ;.>.,.6XxX<./ | i j.vXvXvXuXX.X.5.;.! T OXnXaXcXdX_ t.jXcXcXvXh.[ ",
"U p.uX<X1Xj.T ' y.b.y.O.y.h.OXtXj.E ..eXrXeXwX[ i oX4Xa.c.i.{ t.g.q.3X2XXXXXj.j.+XyX$Xc.j... .t.x._ T d.qXqXrXh.I ] uX0Xs.c.y.[ ",
"% ] @Xc.XXa.E  .M.rX1.[ [ ] p.+X7.E 1.c.h.b.d.u # o.$Xu.....[ y.2X,X:XXXgXDXzXxXyX+X3.[ o.X.1.<XM...^ #.s.oX@X1., u +Xb.O.X.[ ;.",
"I r.#Xh.u.7.( ..M.b.[ :.1.^ u.j.o.' X.u.p.@Xb.{ E o.+X8.I ] 1.1.2Xx.x.z.<XsX1Xa.j.h.3.T ( ..<.<XM.1.] @.#.s.+Xh.^ _ i.h.] T 1.X.",
"@X#X@X8.( ( ( ( <X<Xy.:.I % x ..' Y T ( 1.b.wXb.+X3.| y # I y.t.1Xj.7...h.z.<./ ( 1./ & h } t.z.2X1.E W  .3.+X+X2Xv.1.] > & [ 1.",
"c.c.c.p.' } t.<.b.h.y.;.I 2 _ 2.( X.X.[ y.p.a.c.+X8.[ x c ^ ] [ x.c.1.( z.v.' ( _ 2.~ y Y [ 3.g.h.5.X.W W u.oX+Xh.f.1.[ k j ( [ ",
"@.] ] ..T 5.gX<X: : ; j ( <.6.;.XXsX+XW ] X.....} ..<.<.<.I > u : j ] X.1...h $ I 2.<.<._ h - c j c.fXp.R  .X.] 1.[ 1.;.1.1.x > ",
"@.[ X.X.[ 9.gX+Xy : j : ( 7.;.6.g.zX,X] ....] 1.} } 7.2.<.( & U : U [ :.{ X.c , ~ 2.<.2.~ c c : : +XjXp.W ] ..X.X.[ f.:.[ y.I y ",
"rXjXjXt.% x ,Xh.....rXjX<Xn.=.= ' :X<.& T tXjXeXxX' * 6.,XXXfX$XW ] rXuXuXdXg.~ N y ~ 2X+XyXsX..R j.v.I & i.zXyXkX2Xc c f.,XyXwX",
"cXcXSXh., x g.i.[ o.jXHXeX>X6.* ` g.<.# k jXHXgXFX4.O 7.3XtXKXiXW @.aXcXSXgXf.^ x = ~ 2X2XDXSX3...3.j.^ X X.DXxXSXgX< 3 n.<XxXHX",
"0Xb.<Xg.x ) Q ( 1X#Xd.i.+X3Xq.4.&.~ / i T @XwX2X3Xq.6.q.3XoXs..X0X0X0X@X1X<X2.( ` 4.u.,X+Xj.h.OX1XE ~ _ c 3.yX+X<X<X5.:.3X,Xu.c.",
"b.d.v.f.;.Q X y HXnX+.E XX1X>X>X) O h ~ o.+Xv.+X3Xn.n.>X6Xs.k +.HXaXb.i.c.j.<.~ 6.z.,X2Xj.T ] cXvXU O x ;.t.+Xj.+Xx.M.m.2X3X] T ",
"y.d.p.;.;.*.- b wX0X.X.Xa.g.l.k.*.< x } X.r.u.g.g.l.9.q.g.a..X.XqX0XOXc.h.7.2.' 2.7.i.g.u.c..XtXpX^ 2 ! *.' 7.p.g.f.f.k.f.x.oXs.",
"W W [ x ) ;.~ ( a.OXiXnXi./ >.=.=.B ) ( I T ' / ) 4.,.*./ a.vXqXd.d.OXa...' t.z.2...<. .r.cXaXs.oX' Q ' *.[ ' R ( <._ :.*.<.qXnX",
"] { t.[ Q m _ ^ a.j.#XpX%X| 2.*.*.-.Q ~ ( 1.r.( ` ' *.2.>.%XpXqXd.s.h.p.] ( 7.9.<.[ ' ] r.aXqXc.h.^ Q ) ~ / X...T [ ;.4.<...%XzX",
"$ t.FX8.X h / N [ Q z.z.g.c.i.^ -.=.M , x sXdXh # } b 8.,Xa.oX8.) _ *.' ;.! _ ] [ { y.p.c.oXu...>.b N l X ..zXs.# t >.' XXz.l.h.",
", 8.hX<., t x ) 4.-.x.x.z.j.7..._ Q l O 2 6XsXy $ ~ ..8.8.8.XX9.} *.>.m ;.[ ! ! _ ] 1.h.h.h.g.) B ` B t + 2.sXXX& y | <.9.g.l.l.",
"2Xl./ ^ 2.<.N m * < *.;.x - <.yXx.z ' l...~ ..+XyX1XyX2.t b *.` - - / ~ ,XeX] # [ gX7.- z ` >.l 1 z ) ` 2.} ^ +.#X4X3X1Xx l ` 2.",
"hX2.z } z.>.l h 1 * B ) : , u.xX7.h ~ p.7.U E <XgX1XdX*.X h ) z @ $ b ( 1XeXI X [ FXg.O 1 =.K O 1 h N <.XX..i u.yXpXfXfXh X h ) ",
"l.2.~ ' / / >.>.B n 9.n.*.- 2.z.u.| ( E E R E a.j.g.+X2.< 4.3Xm.z / >.<.i.j.j.8.i.g.7.m K m.m.n z ) ..~ ~ T U ..j.a.j.+XI x x.,X",
"g.~ h t y b } ,.z ) 5XLX4.h [ u.<. .| k i y i o.o.7.1.~ M 5.5Xn.V B 2.6.>.| +X1X%X3.>.x =.5X5X0.m [ 7.^ u u u U u.+.1.' x b n.2X",
"7.7.z.z.j.9.' ' ) ) 9.f.n.v.+X1Xu.| +.u.u.c.oX3...+X2Xn.3Xn.k.w.=.&.5X6Xi.} 8.+.u.4XXXi.m.n.9.` ;.^ _ r.t.i.c.d. .s.tX1X,Xz.z.g.",
"[ eXJXxXxXyX' ~ 5.<.5.*.dXJXcXJX#XE o.vXHXbXbXr.X.uXDXSXGXlX*.4.0.=.LXLX7.T / E $XbXvXKXsX<.2.<.1.^ T <XvXHXHXtX( j.gXSXJXDXj.>.",
"T c.aXrXaX0XT ^ y.f.[ 5.<XeXrXjXj./ r.uX1XaXiXX.R oXjXyX2X,X5.4.9.k.LXlXj.u.i.u.OXpXpX#X@Xr.<.7.t.^ { OXiXeXuX0XE r.pXfXeXeXg.<.",
"% y.0Xd.b.y.{ [ wX<X1.[ [ ] i.wXt.b 1.+Xc.+Xc.u # a.1XX...<.' g.lXM.v.M.uXcXcXiXqXOXu.O.[ _ 1.M.<Xy.^ t.c.@Xb.X.# j <Xv.<.1.' 5.",
"u @.b.b.d.s.W [ b.wXy.1.y.{ y.b.p._ 1.h.h.b.h.E & u.@X3...<. .i.b.$Xc.@XaXaXpX0X@XOXh...5.t.5.2X,XX.^ r.p.b.@Xy.> U b.+X1.2...<.",
"b.b.b.#.O.W W W +X<X1...! > { @.[ ^ ^ <.r.b.@Xc.c.r.X.T y Y <.2.#XOXO.O.oXc.@.W ] 1.( % c :.:.M.<X{ U X.3.s.#Xc.OXb.1.[ k - 5.<.",
"b.b.@Xa.W { W W v.<Xt.<.I % I [ _ [ ( ^ ..h.@X@XrXX.{ j % x 1.f.$Xc.W R .XoXX.^ ( ;.^ ; Q f.f.M.<X..R ( R r.+X+X+Xb.[ [ j ; 1.[ ",
"t.1.1...{ @.rX@XI ~ z I _ [ 1.1.p.wXc.[ X.r.X.X.{ @.r.;.[ _ l c k R ....u.2.I h ! ;.5.*._ l l ~ ~ i.1Xs.( 1.r.1.y.1.;.[ _ ^ ! ~ ",
"] _ ..../ i.fX+X- $ * - m 2.<.^ h.jX@XT ] 1.] ] [ :.:.[ :.Q ; ; - - _ ' ) [ < O Q <.4.5.Q % - - & %XSXh.T ' ] ^ [ ] ;.1.t.;.2 , ",
",X+X+X8.y ^ 4Xl.x ' z.z.f.k.*.N ;.<Xt.u ] d.c.@XwX( I :.x.z.x.x.^ I ,X<Xz.>X*.n z -.) g.x.i.j.R b j.1XY j t.c.<X+Xv.~ ! y.h.z.c.",
"cXxXDXg.X t ,X8.}  .jXJXeX,X&.+ B l..., u jXxXxXFX' X 2.2XyXJXaX] X.dXbXgXxXg.~ n + M 3X2XHXbX@.( p.l.c X 3.vXbXHXyX; 2 x.,XbXmX",
"eX#XsXq.h n } } r.r.0X0Xv.:X6.N B =.>.h U wXyX2XhX2.n q.,Xc.OXOXy.u.rXtXtX4X6.B M -.0.3X,X1XOXu.u.[ ;.I t 3.pX$X4X1X! -.n.v..XOX",
"oXi.%X<.` N $ : DXrXy.T 3.:X:Xw.&.O - ' <.p.h.v.:X8.l.:X+Xt.E O.cXaXc.r.a.8.( b 6.k.l.,X7.T O.pXHXh X ) ..<.a.%Xj.j.k.m.3X+XO.$.",
"@.s.j.<.( x $ x uX0Xy.X.s.j.l.q.-.+ l ' ] f.h.5.q.6.l.q.g.s.O.y.aXrXp.s.a.8.<./ :.9.f.z.h...o.tXeXx ; m / } u.i.8.i.f.9.m.i.#.+.",
" .( ^ ^ / / ^ Y p.c.rXuXh.( ' *.` M &.) Y ^ [ ' >.} ` / ' h.iXyXy.p.p.p.] U 3.5.*.;._ ` t.fXtXj.h.' m ~ ) ~ / R ( ..:.*.*.~ <XzX",
"R E Y ( I b _ x h.h.uXuX3.~ ' ' &.n m x ~ ~ ' ~ b ' ) ' / 9.gX1Xh.h.p.p.T x 7.g.<.*.) _ [ uXdXu.h.) z ~ ` ~ Y Y x ) ) ) *.~ #XfX",
": 3.yX7.; $ m ( _ ~ f.z.f.i.<.~ N ) z O Q <X2Xh - / ' 2.8.9.XXu.^ ^ _ [ ~ x ~ x ) ~ ;.z.g.z.x.' x ~ ) < O <.2Xh.h h &.) q.6.q.g.",
"X 1.gX} X - l m ~ ~ g.g.g.>X<.N N x h 4 h 1XsX- O h b 2.XXl.8.9.) _ ~ I ~ N x m ~ N =.z.q.g.7.) >.z m = X ' hXg.X O ) N l.XXq.l.",
"6.7.>.' *.~ m z < l K -.-.l ;.,X2.z ~ N ' 2...7.7.h.z.} z / } ` < < -.B 6.l.) = ` :X6.l n 6.=.f h n N N ) <.<.1.i.<.z.g.N n } ,.",
"gX6.h ~ 6.>.n < O O K V + O 2.hX7.- ` 9.2.h ~ +XfXsXyX' X & B z O + f n m.5Xl 4 ` hX6.+ * f f + + $ z } 7._ x ;.sX6XsX+Xh X f B ",
">X} m ` *.~ m ) f 1 K 0.n - 2.n.g.x / ' } x b h.j.p.+X] O ~ w.B 1 f K K m.m.&.z 2.3X<.+ z e.=.3 1 x N ` ' Y x _ j.x.c.XXx * -.0.",
">.V h t - x ) ` f M >X5X*.- ~ 1.^  .' - h h c [ X...X.U t 2.>Xw.C n ,.=.,.>.9.,X2.} ( t B 6Xm.K f 2.' y y h x ! t.[  .| k x m.>X",
"<.<.8. .[ 1.' ~ N K 0.0.q.5.i.+Xr.T ( ' 5.5.@.[ O.y.b.@.<.7.0.w.K V 9.w.,._ 6.5.r.s.p.2.6.q.0.B z / Y | 1...<.:.1...%Xu.| 7.0.9.",
"/ z.SXSXaXb.^ Y *.>.B ) sXxXjXjX#Xu 1.hXgXdXdXy.T 0XjXaXxX3X&.&.B >.6X6X4.z ( y u.mXpXgX6X' =.&.~ ~ b XXjXfXdX2X^ ..nXnXzXzXk.-.",
"T u.wXwXrXd.I ^ ` 6.:.' b.0X0XaXr.u p.hX2X2XaX] { b.aX0XsX:XB &.` q.6X2X9.^ [ T s.aX#X#XwX' -.6.>.b k u.eXfXkXb.T [ qXqX1XlX0.=.",
"$ ..c.s.d.y.U ( z.x.<.I [ { @.d.X.T  .3.j.z.y.u # y.d.O. .` B e.:Xq.q.l.dXeXyX0XOX#.#.R R } ` z.l.| b #.h.y.v.1.# U s.#. .) -.=."
};
